SplineFontDB: 3.0
FontName: MonoLith
FullName: MonoLith
FamilyName: MonoLith
Weight: Medium
Copyright: Johannes Jendersie
UComments: "2014-2-26: Created by Johannes Jendersie." 
Version: 1.0
ItalicAngle: 0
UnderlinePosition: -102
UnderlineWidth: 51
Ascent: 824
Descent: 200
LayerCount: 2
Layer: 0 0 "Back"  1
Layer: 1 0 "Zeichenebene"  0
XUID: [1021 814 817 7299]
FSType: 0
OS2Version: 0
OS2_WeightWidthSlopeOnly: 0
OS2_UseTypoMetrics: 1
CreationTime: 1393431914
ModificationTime: 1394979581
PfmFamily: 49
TTFWeight: 500
TTFWidth: 5
LineGap: 92
VLineGap: 92
OS2TypoAscent: 0
OS2TypoAOffset: 1
OS2TypoDescent: 0
OS2TypoDOffset: 1
OS2TypoLinegap: 92
OS2WinAscent: 0
OS2WinAOffset: 1
OS2WinDescent: 0
OS2WinDOffset: 1
HheadAscent: 0
HheadAOffset: 1
HheadDescent: 0
HheadDOffset: 1
OS2Vendor: 'PfEd'
MarkAttachClasses: 1
DEI: 91125
LangName: 1033 
DesignSize: 5000
Encoding: ISO8859-1
UnicodeInterp: none
NameList: Adobe Glyph List
DisplaySize: -24
AntiAlias: 1
FitToEm: 1
WinInfo: 0 21 18
BeginPrivate: 0
EndPrivate
TeXData: 1 -334705458 0 512000 256000 170666 416768 1048576 170666 783286 444596 497025 792723 393216 433062 380633 303038 157286 324010 404750 52429 2506097 1059062 262144
BeginChars: 256 110

StartChar: Q
Encoding: 81 81 0
Width: 500
VWidth: 0
Flags: W
HStem: -186 65<94.1942 169.771> 1 64<133.913 213 279 365.008> 513 63<133.913 365.008>
VStem: 61 59<80.4613 497.521> 381 58<80.4613 497.521>
DStem2: 213 1 227 -129 0.371391 0.928477<-139.789 0>
LayerCount: 2
Fore
SplineSet
152 576 m 2
 349 576 l 2
 399 576 439 536 439 486 c 2
 439 92 l 2
 439 42 399 1 349 1 c 2
 279 1 l 2
 227 -129 l 2
 213 -165 179 -186 143 -186 c 0
 132 -186 120 -183 109 -179 c 2
 78 -167 l 1
 100 -112 l 1
 115 -118 127 -121 136 -121 c 0
 160 -121 170 -104 180 -77 c 1
 213 1 l 1
 152 1 l 2
 102 1 61 42 61 92 c 2
 61 486 l 2
 61 536 102 576 152 576 c 2
182 513 m 2
 147 513 120 486 120 451 c 2
 120 127 l 2
 120 92 147 65 182 65 c 2
 318 65 l 2
 353 65 381 92 381 127 c 2
 381 451 l 2
 381 486 353 513 318 513 c 2
 182 513 l 2
EndSplineSet
Validated: 1
EndChar

StartChar: a
Encoding: 97 97 1
Width: 500
VWidth: 0
Flags: W
HStem: 1 64<136.959 366.942> 191 63<136.959 366.879> 345 65<61 354.657>
VStem: 62 59<79.3405 175.521> 382 58<1 8 79.3405 176.23 249 318.622>
LayerCount: 2
Fore
SplineSet
61 410 m 1
 350 410 l 6
 400 410 440 368 440 318 c 2
 440 257 l 1
 442 1 l 1
 382 1 l 1
 382 8 l 1
 372 4 361 1 350 1 c 2
 153 1 l 2
 103 1 62 43 62 93 c 2
 62 125 l 1
 62 130 l 1
 62 164 l 2
 62 214 103 254 153 254 c 2
 350 254 l 2
 361 254 372 253 382 249 c 1
 382 257 l 2
 381 291 353 345 319 345 c 2
 61 345 l 1
 61 410 l 1
183 191 m 2
 149 191 122 164 121 130 c 2
 121 125 l 2
 122 91 149 65 183 65 c 2
 319 65 l 2
 353 65 381 91 382 125 c 2
 382 130 l 2
 381 164 353 191 319 191 c 2
 183 191 l 2
EndSplineSet
Validated: 1
EndChar

StartChar: b
Encoding: 98 98 2
Width: 500
VWidth: 0
Flags: W
HStem: 2 63<135.293 365.041> 345 63<134.32 367.087> 555 20G<61 120>
VStem: 61 59<1 8 80.2933 330.137 403 575> 381 59<79.3196 329.521>
LayerCount: 2
Fore
SplineSet
61 575 m 1
 120 575 l 1
 120 403 l 1
 130 407 141 408 152 408 c 2
 349 408 l 6
 399 408 440 368 440 318 c 2
 440 93 l 2
 440 43 399 2 349 2 c 2
 152 2 l 2
 141 2 130 4 120 8 c 1
 120 1 l 1
 61 1 l 1
 61 93 l 1
 61 318 l 1
 61 575 l 1
183 345 m 2
 148 345 120 318 120 283 c 2
 120 128 l 2
 120 93 148 65 183 65 c 2
 319 65 l 2
 354 65 381 93 381 128 c 2
 381 283 l 2
 381 318 354 345 319 345 c 2
 183 345 l 2
EndSplineSet
Validated: 1
EndChar

StartChar: c
Encoding: 99 99 3
Width: 500
VWidth: 0
Flags: W
HStem: 1 63<135.959 365.008> 344 63<133.913 365.008>
VStem: 61 59<78.3196 328.521> 381 58<80.4613 127 282 328.521>
LayerCount: 2
Fore
SplineSet
381 127 m 5
 441 127 l 5
 439 92 l 5
 439 42 399 1 349 1 c 6
 152 1 l 6
 102 1 61 42 61 92 c 6
 61 317 l 2
 61 367 102 407 152 407 c 2
 349 407 l 2
 399 407 439 367 439 317 c 1
 441 282 l 1
 381 282 l 1
 381 317 353 344 318 344 c 2
 182 344 l 2
 147 344 120 317 120 282 c 2
 120 127 l 6
 120 92 147 64 182 64 c 6
 318 64 l 6
 353 64 381 92 381 127 c 5
EndSplineSet
Validated: 1
EndChar

StartChar: d
Encoding: 100 100 4
Width: 500
VWidth: 0
Flags: W
HStem: 2 63<135.959 366.137> 345 63<133.913 366.883> 555 20G<381 440>
VStem: 61 59<79.3196 329.521> 381 59<1 8 79.3196 331.087 403 575>
LayerCount: 2
Fore
SplineSet
440 575 m 1
 440 318 l 1
 440 93 l 5
 440 1 l 5
 381 1 l 5
 381 8 l 5
 371 4 360 2 349 2 c 6
 152 2 l 6
 102 2 61 43 61 93 c 6
 61 318 l 2
 61 368 102 408 152 408 c 2
 349 408 l 2
 360 408 371 407 381 403 c 1
 381 575 l 1
 440 575 l 1
319 345 m 2
 182 345 l 2
 147 345 120 318 120 283 c 2
 120 128 l 6
 120 93 147 65 182 65 c 6
 319 65 l 6
 354 65 381 93 381 128 c 6
 381 283 l 2
 381 318 354 345 319 345 c 2
EndSplineSet
Validated: 1
EndChar

StartChar: e
Encoding: 101 101 5
Width: 500
VWidth: 0
Flags: W
HStem: 1 63<135.959 365.008> 191 63<120.612 378.146> 345 65<122.264 377.69>
VStem: 61 59<80.4613 197 255.107 343.752> 379 61<78.2012 125 257.407 342.875>
LayerCount: 2
Fore
SplineSet
344 410 m 0
 358 410 377 408 394 398 c 1
 425 381 440 353 440 318 c 2
 440 282 l 2
 440 226 390 192 356 192 c 0
 292 192 187 191 162 191 c 0
 149 191 133 192 120 197 c 1
 120 125 l 6
 121 91 148 64 182 64 c 6
 318 64 l 6
 352 64 380 91 381 125 c 5
 439 125 l 5
 439 92 l 6
 439 42 399 1 349 1 c 6
 152 1 l 6
 102 1 61 42 61 92 c 6
 61 336 l 2
 61 378 108 410 150 410 c 0
 151 410 151 410 152 410 c 2
 152 410 341 410 344 410 c 0
345 345 m 2
 147 345 l 2
 132 345 120 326 120 317 c 0
 120 308 120 287 120 279 c 0
 120 265 136 254 150 254 c 2
 345 255 l 2
 361 255 379 266 379 282 c 0
 379 294 379 302 379 318 c 0
 379 333 360 345 345 345 c 2
EndSplineSet
Validated: 1
EndChar

StartChar: f
Encoding: 102 102 6
Width: 500
VWidth: 0
Flags: W
HStem: 0 21G<196 255> 0 21G<196 255> 350 58<61 196 255 439> 511 64<270.959 440>
VStem: 196 59<0 350 408 495.323>
LayerCount: 2
Fore
SplineSet
287 575 m 2xb8
 440 575 l 1
 440 511 l 1
 318 511 l 1
 283 509 255 484 255 449 c 2
 255 408 l 1
 439 408 l 1
 439 350 l 1
 255 350 l 1
 255 0 l 1
 196 0 l 1
 196 350 l 1
 61 350 l 1
 61 408 l 1
 196 408 l 1
 196 484 l 2
 196 534 237 575 287 575 c 2xb8
EndSplineSet
Validated: 1
EndChar

StartChar: g
Encoding: 103 103 7
Width: 500
VWidth: 0
Flags: W
HStem: -187 63<135.959 365.008> 1 63<135.959 365.707> 344 63<133.913 366.68>
VStem: 61 59<-107.539 -63 78.3196 328.521> 381 58<-107.539 7 79.2933 329.137 402 408>
LayerCount: 2
Fore
SplineSet
381 408 m 1
 440 408 l 1
 439 -63 l 1
 439 -96 l 2
 439 -146 399 -187 349 -187 c 2
 152 -187 l 2
 102 -187 61 -146 61 -96 c 2
 61 -63 l 1
 120 -63 l 1
 121 -97 148 -124 182 -124 c 2
 318 -124 l 2
 352 -124 381 -97 381 -63 c 2
 381 7 l 1
 371 3 360 1 349 1 c 2
 152 1 l 2
 102 1 61 42 61 92 c 2
 61 317 l 2
 61 367 102 407 152 407 c 2
 349 407 l 2
 360 407 371 406 381 402 c 1
 381 408 l 1
182 344 m 2
 147 344 120 317 120 282 c 2
 120 127 l 2
 120 92 147 64 182 64 c 2
 318 64 l 2
 353 64 381 92 381 127 c 2
 381 282 l 2
 381 317 353 344 318 344 c 2
 182 344 l 2
EndSplineSet
Validated: 1
EndChar

StartChar: h
Encoding: 104 104 8
Width: 500
VWidth: 0
Flags: W
HStem: 0 21G<61 119 381 440> 0 21G<61 119 381 440> 345 64<134.651 365.041> 555 20G<61 119>
VStem: 61 58<1 329.262 403 575> 381 59<0 328.556>
LayerCount: 2
Fore
SplineSet
61 575 m 1xbc
 119 575 l 1
 119 403 l 1
 129 407 141 409 152 409 c 2
 349 409 l 2
 399 409 440 367 440 317 c 2
 440 0 l 1
 381 0 l 1
 381 284 l 2
 380 318 352 345 318 345 c 2
 182 345 l 2
 148 345 121 318 120 284 c 1
 119 284 l 1
 119 1 l 1
 61 1 l 1
 61 575 l 1xbc
EndSplineSet
Validated: 1
EndChar

StartChar: i
Encoding: 105 105 9
Width: 500
VWidth: 0
Flags: W
HStem: 1 64<95 242 300 435> 345 65<129 242> 509 64<240.411 301.589>
VStem: 242 58<65 345 509.637 572.363>
LayerCount: 2
Fore
SplineSet
271 573 m 0
 289 573 303 559 303 541 c 0
 303 523 289 509 271 509 c 0
 253 509 239 523 239 541 c 0
 239 559 253 573 271 573 c 0
300 410 m 1
 300 345 l 1
 300 65 l 1
 435 65 l 1
 435 1 l 1
 300 1 l 1
 242 1 l 1
 95 1 l 1
 95 65 l 1
 242 65 l 1
 242 345 l 1
 129 345 l 1
 129 410 l 1
 242 410 l 1
 300 410 l 1
EndSplineSet
Validated: 1
EndChar

StartChar: j
Encoding: 106 106 10
Width: 500
VWidth: 0
Flags: W
HStem: -187 63<95 277.155> 345 65<96 289> 509 64<287.411 348.589>
VStem: 289 58<-109.799 345 509.637 572.363>
LayerCount: 2
Fore
SplineSet
318 573 m 0
 336 573 350 559 350 541 c 0
 350 523 336 509 318 509 c 0
 300 509 286 523 286 541 c 0
 286 559 300 573 318 573 c 0
347 410 m 1
 347 -96 l 2
 347 -146 307 -187 257 -187 c 2
 95 -187 l 1
 95 -124 l 1
 226 -124 l 2
 260 -124 289 -100 289 -72 c 2
 289 345 l 1
 96 345 l 1
 96 410 l 1
 347 410 l 1
EndSplineSet
Validated: 1
EndChar

StartChar: k
Encoding: 107 107 11
Width: 500
VWidth: 0
Flags: W
HStem: 0 21G<61 119 340.053 440> 0 21G<61 119 340.053 440> 390 20G<311.327 440> 555 20G<61 119>
VStem: 61 58<0 179 251 575> 339 101<309 410> 359 81<0 81>
DStem2: 119 251 161 209 0.811678 0.584105<0 9.55808 68.9623 271.442> 209 244 161 209 0.687497 -0.726187<0 280.314>
LayerCount: 2
Fore
SplineSet
61 575 m 1xba
 119 575 l 1
 119 251 l 1
 339 410 l 1
 440 410 l 1xbc
 209 244 l 1
 440 0 l 1
 359 0 l 1
 161 209 l 1
 119 179 l 1
 119 0 l 1
 61 0 l 1
 61 575 l 1xba
EndSplineSet
Validated: 1
EndChar

StartChar: l
Encoding: 108 108 12
Width: 500
VWidth: 0
Flags: W
HStem: 1 63<247.992 440> 516 59<60 174>
VStem: 174 58<80.4613 516>
LayerCount: 2
Fore
SplineSet
264 1 m 6
 214 1 174 42 174 92 c 6
 174 516 l 1
 60 516 l 1
 60 575 l 1
 232 575 l 1
 232 127 l 6
 232 92 260 66 295 64 c 5
 440 64 l 5
 440 1 l 5
 264 1 l 6
EndSplineSet
Validated: 1
EndChar

StartChar: m
Encoding: 109 109 13
Width: 500
VWidth: 0
Flags: W
HStem: 0 21G<61 119 221 279 380.932 440> 0 21G<61 119 221 279 380.932 440> 347 63<134.651 221 279 364.8>
VStem: 61 58<0 331.262 404 410> 221 58<0 347> 381 59<0 330.539>
LayerCount: 2
Fore
SplineSet
61 410 m 1xbc
 119 410 l 1
 119 404 l 1
 129 408 141 410 152 410 c 2
 349 410 l 2
 399 410 439 369 439 319 c 2
 440 0 l 1
 381 0 l 1
 380 294 l 2
 380 314 352 347 318 347 c 2
 279 347 l 1
 279 0 l 1
 221 0 l 1
 221 347 l 1
 182 347 l 2
 148 347 121 320 120 286 c 1
 119 286 l 1
 119 0 l 1
 61 0 l 1
 61 410 l 1xbc
EndSplineSet
Validated: 1
EndChar

StartChar: n
Encoding: 110 110 14
Width: 500
VWidth: 0
Flags: W
HStem: 0 21G<61 119 380.932 440> 0 21G<61 119 380.932 440> 347 63<134.651 365.008>
VStem: 61 58<0 331.262 404 410> 381 59<0 330.539>
LayerCount: 2
Fore
SplineSet
61 410 m 1xb8
 119 410 l 1
 119 404 l 1
 129 408 141 410 152 410 c 2
 349 410 l 2
 399 410 439 369 439 319 c 2
 440 0 l 1
 381 0 l 1
 380 292 l 2
 380 319 352 347 318 347 c 2
 182 347 l 2
 148 347 121 320 120 286 c 1
 119 286 l 1
 119 0 l 1
 61 0 l 1
 61 410 l 1xb8
EndSplineSet
Validated: 1
EndChar

StartChar: o
Encoding: 111 111 15
Width: 500
VWidth: 0
Flags: W
HStem: 1 63<135.959 365.008> 344 63<133.913 365.008>
VStem: 61 59<78.3196 328.521> 381 58<80.4613 328.521>
LayerCount: 2
Fore
SplineSet
152 407 m 1
 349 407 l 2
 399 407 439 367 439 317 c 2
 439 92 l 6
 439 42 399 1 349 1 c 6
 152 1 l 6
 102 1 61 42 61 92 c 6
 61 317 l 2
 61 367 102 407 152 407 c 1
182 344 m 2
 147 344 120 317 120 282 c 2
 120 127 l 6
 120 92 147 64 182 64 c 6
 318 64 l 6
 353 64 381 92 381 127 c 6
 381 282 l 2
 381 317 353 344 318 344 c 2
 182 344 l 2
EndSplineSet
Validated: 1
EndChar

StartChar: p
Encoding: 112 112 16
Width: 500
VWidth: 0
Flags: W
HStem: 1 63<134.072 365.008> 343 63<134.072 365.008>
VStem: 61 58<-188 7 78.8634 328.137 400 407> 381 58<79.4787 327.521>
LayerCount: 2
Fore
SplineSet
61 -188 m 1
 61 407 l 1
 119 407 l 1
 119 400 l 1
 129 404 141 406 152 406 c 2
 349 406 l 2
 399 406 439 366 439 316 c 2
 439 91 l 2
 439 41 399 1 349 1 c 2
 152 1 l 2
 141 1 129 3 119 7 c 1
 119 -188 l 1
 61 -188 l 1
182 64 m 2
 318 64 l 2
 353 64 381 91 381 126 c 2
 381 281 l 2
 381 316 353 343 318 343 c 2
 182 343 l 2
 147 343 120 316 120 281 c 2
 120 126 l 2
 120 91 147 64 182 64 c 2
EndSplineSet
Validated: 1
EndChar

StartChar: q
Encoding: 113 113 17
Width: 500
VWidth: 0
Flags: W
HStem: 1 63<133.913 366.68> 343 63<133.913 366.68>
VStem: 61 59<79.4787 327.521> 381 58<-188 7 78.8634 328.137 400 407>
LayerCount: 2
Fore
SplineSet
439 -188 m 1
 381 -188 l 1
 381 7 l 1
 371 3 360 1 349 1 c 2
 152 1 l 2
 102 1 61 41 61 91 c 2
 61 316 l 2
 61 366 102 406 152 406 c 2
 349 406 l 2
 360 406 371 404 381 400 c 1
 381 407 l 1
 439 407 l 1
 439 -188 l 1
318 64 m 2
 353 64 381 91 381 126 c 2
 381 281 l 2
 381 316 353 343 318 343 c 2
 182 343 l 2
 147 343 120 316 120 281 c 2
 120 126 l 2
 120 91 147 64 182 64 c 2
 318 64 l 2
EndSplineSet
Validated: 1
EndChar

StartChar: r
Encoding: 114 114 18
Width: 500
VWidth: 0
Flags: W
HStem: 0 21G<61 119> 0 21G<61 119> 347 63<136.588 365.008>
VStem: 61 58<0 329.903 401 410> 381 58<286 331.521>
LayerCount: 2
Fore
SplineSet
61 410 m 1xb8
 119 410 l 1
 119 401 l 1
 129 405 141 410 152 410 c 2
 349 410 l 2
 399 410 439 370 439 320 c 2
 439 286 l 1
 381 286 l 1
 380 320 352 347 318 347 c 2
 182 347 l 2
 148 347 121 317 120 283 c 1
 119 283 l 1
 119 0 l 1
 61 0 l 1
 61 410 l 1xb8
EndSplineSet
Validated: 1
EndChar

StartChar: s
Encoding: 115 115 19
Width: 500
VWidth: 0
Flags: W
HStem: 1 63<136.959 365.041> 192 63<125.943 365.041> 344 63<128.1 365.041>
VStem: 61 60<80.4613 125 261.278 336.18> 380 60<78.4871 176.521 283 328.521>
LayerCount: 2
Fore
SplineSet
440 165 m 2
 440 92 l 6
 440 42 399 1 349 1 c 6
 153 1 l 6
 103 1 62 42 62 92 c 6
 62 125 l 5
 121 125 l 5
 122 91 149 64 183 64 c 6
 319 64 l 6
 353 64 380 92 380 129 c 4
 380 166 353 192 319 192 c 2
 153 192 l 2
 103 192 61 234 61 284 c 2
 61 318 l 2
 61 368 103 407 153 407 c 2
 349 407 l 2
 399 407 440 367 440 317 c 2
 440 283 l 1
 381 283 l 1
 380 317 353 344 319 344 c 2
 183 344 l 2
 145 344 121 332 121 297 c 0
 122 263 145 255 183 255 c 2
 349 255 l 2
 399 255 440 215 440 165 c 2
EndSplineSet
Validated: 1
EndChar

StartChar: t
Encoding: 116 116 20
Width: 500
VWidth: 0
Flags: W
HStem: 1 63<269.992 440> 350 58<60 196 254 439> 555 20G<196 254>
VStem: 196 58<80.4613 350 408 575>
LayerCount: 2
Fore
SplineSet
286 1 m 6
 236 1 196 42 196 92 c 6
 196 350 l 1
 60 350 l 1
 60 408 l 1
 196 408 l 1
 196 575 l 1
 254 575 l 1
 254 408 l 1
 439 408 l 1
 439 350 l 1
 254 350 l 1
 254 127 l 6
 254 92 282 66 317 64 c 5
 440 64 l 5
 440 1 l 5
 286 1 l 6
EndSplineSet
Validated: 1
EndChar

StartChar: u
Encoding: 117 117 21
Width: 500
VWidth: 0
Flags: W
HStem: 1 63<135.959 366.357> 390 20G<61 120 381 440>
VStem: 61 59<80.4613 410> 381 59<1 7 79.3158 410>
LayerCount: 2
Fore
SplineSet
440 1 m 5
 381 1 l 5
 381 7 l 5
 371 3 360 1 349 1 c 6
 152 1 l 6
 102 1 61 42 61 92 c 6
 61 410 l 1
 120 410 l 1
 120 124 l 6
 121 94 148 64 182 64 c 6
 318 64 l 6
 352 64 381 94 381 120 c 6
 381 410 l 1
 440 410 l 1
 440 1 l 5
EndSplineSet
Validated: 1
EndChar

StartChar: v
Encoding: 118 118 22
Width: 500
VWidth: 0
Flags: W
HStem: 1 64<201.79 298.077> 388 20G<61 125.139 375.74 440>
VStem: 61 59<349 408> 381 59<349 408>
DStem2: 120 408 61 408 0.252183 -0.96768<0 360.308> 305 119 355 77 0.248727 0.968574<-57.4516 298.821>
LayerCount: 2
Fore
SplineSet
61 408 m 1
 81 408 100 408 120 408 c 1
 194 120 l 6
 199 99 202 70 220 65 c 5
 241 65 261 65 282 65 c 5
 299 73 301 100 305 119 c 5
 381 408 l 1
 440 408 l 1
 355 77 l 5
 348 54 342 12 313 1 c 5
 186 1 l 5
 159 15 154 53 147 78 c 6
 61 408 l 1
EndSplineSet
Validated: 1
EndChar

StartChar: w
Encoding: 119 119 23
Width: 500
VWidth: 0
Flags: W
HStem: 1 63<136.51 222 280 363.7> 388 20G<61 120 222 280 381 440>
VStem: 61 59<80.3188 408> 222 58<64 407> 381 59<81.82 408>
LayerCount: 2
Fore
SplineSet
61 408 m 1
 81 408 100 408 120 408 c 1
 120 318 120 217 120 127 c 4
 120 88 153 64 189 64 c 6
 222 64 l 5
 222 179 222 292 222 407 c 1
 241 407 261 407 280 407 c 1
 280 292 280 179 280 64 c 5
 291 64 302 64 313 64 c 4
 348 64 381 90 381 125 c 4
 381 219 381 314 381 408 c 1
 401 408 420 408 440 408 c 1
 440 304 440 199 440 95 c 4
 440 48 402 1 355 1 c 6
 154 1 l 6
 107 1 61 39 61 87 c 6
 61 408 l 1
EndSplineSet
Validated: 1
EndChar

StartChar: x
Encoding: 120 120 24
Width: 500
VWidth: 0
Flags: W
HStem: 0 21G<61 148.968 351.903 440> 0 21G<61 148.968 351.903 440> 388 20G<60 148 352.872 441>
VStem: 61 73<0 73 335 408> 367 73<0 73 335 408>
DStem2: 133 408 60 408 0.601253 -0.799059<0 195 272.508 466.709> 61 0 134 0 0.601253 0.799059<43.8914 237.491 315 510.601>
LayerCount: 2
Fore
SplineSet
60 408 m 1xb8
 133 408 l 1
 250 252 l 1
 368 408 l 1
 441 408 l 1
 287 204 l 1
 440 0 l 1
 367 0 l 1
 250 155 l 1
 134 0 l 1
 61 0 l 1
 214 204 l 1
 60 408 l 1xb8
EndSplineSet
Validated: 1
EndChar

StartChar: y
Encoding: 121 121 25
Width: 500
VWidth: 0
Flags: W
HStem: -186 65<93.452 168.835> 388 20G<60 142.5 357.5 440>
DStem2: 122 408 60 408 0.364135 -0.931346<0 340.754> 216 9 226 -129 0.370197 0.928953<-147.041 0 87.6503 430.624>
LayerCount: 2
Fore
SplineSet
60 408 m 1
 79 408 103 408 122 408 c 1
 163 303 206 196 247 91 c 1
 288 196 337 303 378 408 c 1
 440 408 l 1
 386 272 332 135 278 -1 c 2
 226 -129 l 2
 212 -165 180 -186 144 -186 c 0
 133 -186 120 -184 109 -179 c 2
 78 -167 l 1
 99 -113 l 1
 114 -119 126 -121 135 -121 c 0
 159 -121 169 -104 179 -77 c 1
 216 9 l 1
 164 142 112 275 60 408 c 1
EndSplineSet
Validated: 1
EndChar

StartChar: z
Encoding: 122 122 26
Width: 500
VWidth: 0
Flags: W
HStem: 1 58<142 360.898> 351 59<137.963 355>
VStem: 62 58<285 332.612> 382 58<79.6396 125>
DStem2: 61 61 142 59 0.710927 0.703266<56.1785 412.96>
LayerCount: 2
Fore
SplineSet
132 410 m 2
 440 410 l 1
 440 353 l 1
 341 256 241 157 142 59 c 1
 198 59 253 59 309 59 c 0
 345 59 382 89 382 125 c 1
 401 125 421 125 440 125 c 1
 440 115 440 105 440 95 c 0
 440 48 400 1 352 1 c 2
 61 1 l 1
 61 61 l 1
 159 158 257 254 355 351 c 1
 300 351 244 351 189 351 c 0
 151 351 120 321 120 285 c 1
 101 285 81 285 62 285 c 1
 62 294 62 303 62 312 c 0
 62 356 92 410 132 410 c 2
EndSplineSet
Validated: 1
EndChar

StartChar: A
Encoding: 65 65 27
Width: 500
VWidth: 0
Flags: W
HStem: 0 21G<61 123.299 377.598 440> 0 21G<61 123.299 377.598 440> 194 59<162 338> 512 64<203.625 296.75>
VStem: 61 59<0 59> 381 59<0 59>
DStem2: 61 0 120 0 0.172092 0.985081<10.1535 206.766 266.607 532.388> 355 500 338 253 0.167595 -0.985856<-24.1417 240.657 300.499 497.285>
LayerCount: 2
Fore
SplineSet
314 576 m 2xbc
 333 576 351 526 355 500 c 2
 440 0 l 1
 381 0 l 1
 348 194 l 1
 152 194 l 1
 120 0 l 1
 61 0 l 1
 148 498 l 2
 154 527 171 576 187 576 c 2
 314 576 l 2xbc
279 512 m 1
 221 512 l 1
 204 507 200 477 196 456 c 1
 162 253 l 1
 338 253 l 1
 304 458 l 2
 301 477 296 506 279 512 c 1
EndSplineSet
Validated: 1
EndChar

StartChar: B
Encoding: 66 66 28
Width: 500
VWidth: 0
Flags: W
HStem: 2 63<134.863 366.81> 345 66<134.451 367.087> 512 64<124.5 373.242>
VStem: 61 59<1 8 79.3196 331.087 419.996 506.641 570 576> 381 59<79.3196 330.335 422.977 502.309>
LayerCount: 2
Fore
SplineSet
346 576 m 2
 396 576 440 534 440 484 c 2
 440 433 l 2
 440 411 431 393 417 378 c 1
 431 362 440 340 440 318 c 2
 440 93 l 6
 440 43 399 2 349 2 c 6
 152 2 l 6
 141 2 130 4 120 8 c 5
 120 1 l 5
 61 1 l 5
 61 576 l 1
 120 576 l 1
 120 570 l 1
 128 573 136 576 144 576 c 2
 346 576 l 2
322 512 m 2
 164 512 l 2
 138 512 120 491 120 475 c 2
 120 449 l 2
 120 429 151 411 173 411 c 2
 317 411 l 2
 350 411 379 431 379 452 c 2
 379 476 l 2
 379 498 350 512 322 512 c 2
182 345 m 2
 147 345 120 318 120 283 c 2
 120 128 l 6
 120 93 147 65 182 65 c 6
 319 65 l 6
 356 65 381 93 381 128 c 6
 381 283 l 2
 381 318 354 345 319 345 c 2
 182 345 l 2
EndSplineSet
Validated: 1
EndChar

StartChar: C
Encoding: 67 67 29
Width: 500
VWidth: 0
Flags: W
HStem: 1 63<135.959 365.008> 513 63<135.959 365.008>
VStem: 61 59<78.3196 498.68> 381 58<80.4613 127 450 496.539>
LayerCount: 2
Fore
SplineSet
381 127 m 1
 439 127 l 1
 439 92 l 1
 439 42 399 1 349 1 c 2
 152 1 l 2
 102 1 61 42 61 92 c 2
 61 485 l 2
 61 535 102 576 152 576 c 2
 349 576 l 2
 399 576 439 535 439 485 c 1
 439 450 l 1
 381 450 l 1
 381 485 353 513 318 513 c 2
 182 513 l 2
 147 513 120 485 120 450 c 2
 120 127 l 2
 120 92 147 64 182 64 c 2
 318 64 l 2
 353 64 381 92 381 127 c 1
EndSplineSet
Validated: 1
EndChar

StartChar: D
Encoding: 68 68 30
Width: 500
VWidth: 0
Flags: W
HStem: 1 64<133.482 363.522> 509 62<132.916 369.426>
VStem: 61 58<1 5 78.0781 494.846 569 573> 380 58<81.4571 496.742>
LayerCount: 2
Fore
SplineSet
61 573 m 1
 115 573 l 1
 115 569 l 1
 128 571 128 571 142 571 c 2
 333 572 l 2
 405 572 438 534 438 458 c 2
 438 99 l 6
 438 51 404 1 357 1 c 6
 160 1 l 6
 140 1 119 5 119 5 c 5
 119 1 l 5
 61 1 l 5
 61 573 l 1
327 508 m 2
 181 509 l 2
 149 509 119 483 119 451 c 0
 119 345 119 239 119 133 c 4
 119 101 139 65 172 65 c 6
 314 64 l 6
 348 64 380 93 380 125 c 6
 380 448 l 2
 380 485 360 508 327 508 c 2
EndSplineSet
Validated: 1
EndChar

StartChar: E
Encoding: 69 69 31
Width: 500
VWidth: 0
Flags: W
HStem: 1 63<135.959 365.008> 351 59<120 288> 513 63<135.959 365.008>
VStem: 61 59<78.3196 351 410 498.68> 381 58<80.4613 127 450 496.539>
LayerCount: 2
Fore
SplineSet
152 576 m 1
 349 576 l 2
 399 576 439 535 439 485 c 1
 440 450 l 1
 381 450 l 1
 381 485 353 513 318 513 c 2
 182 513 l 2
 147 513 120 485 120 450 c 2
 120 410 l 1
 288 410 l 1
 288 351 l 1
 120 351 l 1
 120 127 l 6
 120 92 147 64 182 64 c 6
 318 64 l 6
 353 64 381 92 381 127 c 5
 440 127 l 5
 439 92 l 5
 439 42 399 1 349 1 c 6
 152 1 l 6
 102 1 61 42 61 92 c 6
 61 485 l 2
 61 535 102 576 152 576 c 1
EndSplineSet
Validated: 1
EndChar

StartChar: F
Encoding: 70 70 32
Width: 500
VWidth: 0
Flags: W
HStem: 0 21G<61 119> 0 21G<61 119> 349 59<119 287> 510 63<135.959 365.008>
VStem: 61 58<0 349 408 494.521> 381 58<449 494.521>
LayerCount: 2
Fore
SplineSet
61 0 m 1xbc
 61 483 l 2
 61 533 102 573 152 573 c 2
 349 573 l 2
 399 573 439 533 439 483 c 2
 439 449 l 1
 381 449 l 1
 380 483 352 510 318 510 c 2
 182 510 l 2
 148 510 120 482 119 448 c 0
 119 435 119 421 119 408 c 1
 287 408 l 1
 287 349 l 1
 119 349 l 1
 119 0 l 1
 61 0 l 1xbc
EndSplineSet
Validated: 1
EndChar

StartChar: G
Encoding: 71 71 33
Width: 500
VWidth: 0
Flags: W
HStem: 1 63<135.959 365.008> 191 63<255 365.008> 513 63<135.959 365.008>
VStem: 61 59<78.3196 498.68> 381 58<80.4613 176.473 450 496.539>
LayerCount: 2
Fore
SplineSet
439 165 m 2
 439 92 l 2
 439 42 399 1 349 1 c 2
 152 1 l 2
 102 1 61 42 61 92 c 2
 61 485 l 2
 61 535 102 576 152 576 c 2
 349 576 l 2
 399 576 439 535 439 485 c 1
 440 450 l 1
 381 450 l 1
 381 485 353 513 318 513 c 2
 182 513 l 2
 147 513 120 485 120 450 c 2
 120 127 l 2
 120 92 147 64 182 64 c 2
 318 64 l 2
 353 64 381 92 381 129 c 0
 380 165 352 191 318 191 c 2
 255 191 l 1
 255 254 l 1
 349 254 l 2
 399 254 439 215 439 165 c 2
EndSplineSet
Validated: 1
EndChar

StartChar: H
Encoding: 72 72 34
Width: 500
VWidth: 0
Flags: W
HStem: 0 21G<61 121 381 440> 0 21G<61 121 381 440> 345 64<135.654 365.871> 555 20G<61 119 382 440>
VStem: 61 60<0 330.017 403 575> 381 59<0 330.017 403 575>
LayerCount: 2
Fore
SplineSet
440 575 m 1xbc
 440 0 l 1
 381 0 l 1
 381 284 l 2
 380 317 354 343 321 345 c 1
 180 345 l 1
 147 343 122 317 121 284 c 2
 121 0 l 1
 61 0 l 1
 61 575 l 1
 119 575 l 1
 119 403 l 1
 129 407 141 409 152 409 c 2
 350 409 l 2
 361 409 372 407 382 403 c 1
 382 575 l 1
 440 575 l 1xbc
EndSplineSet
Validated: 1
EndChar

StartChar: I
Encoding: 73 73 35
Width: 500
VWidth: 0
Flags: W
HStem: 1 63<61 221 279 439> 515 59<61 221 279 439>
VStem: 221 58<64 515>
LayerCount: 2
Fore
SplineSet
61 574 m 1
 439 574 l 1
 439 515 l 1
 279 515 l 1
 279 64 l 1
 439 64 l 1
 439 1 l 1
 61 1 l 1
 61 64 l 1
 221 64 l 1
 221 515 l 1
 61 515 l 1
 61 574 l 1
EndSplineSet
Validated: 1
EndChar

StartChar: J
Encoding: 74 74 36
Width: 500
VWidth: 0
Flags: W
HStem: 1 63<61 367.942> 516 59<61 384>
VStem: 384 56<80.079 516>
LayerCount: 2
Fore
SplineSet
61 575 m 1
 440 576 l 1
 440 82 l 6
 440 41 402 1 352 1 c 6
 61 1 l 5
 61 64 l 5
 322 64 l 6
 356 64 382 91 383 125 c 5
 384 125 l 5
 384 516 l 1
 61 516 l 1
 61 575 l 1
EndSplineSet
Validated: 1
EndChar

StartChar: K
Encoding: 75 75 37
Width: 500
VWidth: 0
Flags: W
HStem: 0 21G<61 119 348.412 440> 0 21G<61 119 348.412 440> 555 19G<61 119 311.327 440>
VStem: 61 58<0 343 415 575> 339 101<473 574>
DStem2: 119 415 161 374 0.811678 0.584105<0 10.1422 68.9623 271.442>
LayerCount: 2
Fore
SplineSet
61 575 m 1xb8
 119 575 l 1
 119 415 l 1
 339 574 l 1
 440 574 l 1
 209 408 l 1
 440 0 l 1
 359 0 l 1
 161 374 l 1
 119 343 l 1
 119 0 l 1
 61 0 l 1
 61 575 l 1xb8
EndSplineSet
Validated: 1
EndChar

StartChar: L
Encoding: 76 76 38
Width: 500
VWidth: 0
Flags: W
HStem: 1 63<135.959 440> 555 20G<61 120>
VStem: 61 59<80.4613 575>
LayerCount: 2
Fore
SplineSet
152 1 m 6
 102 1 61 42 61 92 c 6
 61 575 l 1
 120 575 l 1
 120 127 l 6
 120 92 147 66 182 64 c 5
 440 64 l 5
 440 1 l 5
 152 1 l 6
EndSplineSet
Validated: 1
EndChar

StartChar: M
Encoding: 77 77 39
Width: 500
VWidth: 0
Flags: W
HStem: 0 21G<61 120 381 440> 0 21G<61 120 381 440> 511 63<136.574 222 280 365.018>
VStem: 61 59<0 494.628> 222 58<252 511> 381 59<0 495.36>
LayerCount: 2
Fore
SplineSet
61 0 m 1xbc
 61 488 l 1
 62 536 105 574 154 574 c 2
 356 574 l 2
 405 574 440 527 440 480 c 2
 440 0 l 1
 381 0 l 1
 381 94 381 356 381 450 c 0
 381 486 352 511 313 511 c 0
 302 511 291 511 280 511 c 1
 280 396 280 367 280 252 c 1
 261 252 241 252 222 252 c 1
 222 367 222 396 222 511 c 1
 186 510 l 2
 145 510 120 479 120 446 c 2
 120 0 l 1
 61 0 l 1xbc
EndSplineSet
Validated: 1
EndChar

StartChar: N
Encoding: 78 78 40
Width: 500
VWidth: 0
Flags: W
HStem: 1 20G<61.9652 120 371.49 440> 1 20G<61.9652 120 371.49 440> 556 20G<61 159.5 381 440>
VStem: 62 58<1 457> 381 59<121 574>
DStem2: 118 576 120 457 0.498792 -0.866722<104.137 525.541>
LayerCount: 2
Fore
SplineSet
383 0 m 1xb8
 120 457 l 1
 120 1 l 1
 62 1 l 1
 61 576 l 1
 118 576 l 1
 201 424 293 271 381 121 c 1
 381 574 l 1
 440 574 l 1
 440 0 l 1
 383 0 l 1xb8
EndSplineSet
Validated: 1
EndChar

StartChar: O
Encoding: 79 79 41
Width: 500
VWidth: 0
Flags: W
HStem: 1 63<135.959 365.008> 513 63<135.959 365.008>
VStem: 61 59<78.3196 498.68> 381 58<80.4613 496.539>
LayerCount: 2
Fore
SplineSet
152 576 m 6
 349 576 l 2
 399 576 439 535 439 485 c 2
 439 92 l 2
 439 42 399 1 349 1 c 2
 152 1 l 2
 102 1 61 42 61 92 c 2
 61 485 l 2
 61 535 102 576 152 576 c 6
182 513 m 2
 147 513 120 485 120 450 c 2
 120 127 l 2
 120 92 147 64 182 64 c 2
 318 64 l 2
 353 64 381 92 381 127 c 2
 381 450 l 2
 381 485 353 513 318 513 c 2
 182 513 l 2
EndSplineSet
Validated: 1
EndChar

StartChar: P
Encoding: 80 80 42
Width: 500
VWidth: 0
Flags: W
HStem: 0 21G<61 119> 0 21G<61 119> 347 63<128.05 371.591> 511 64<128.8 371.591>
VStem: 61 58<0 352 419.705 500.865 569 576> 381 58<420.992 500.041>
LayerCount: 2
Fore
SplineSet
61 0 m 1xbc
 61 192 61 384 61 576 c 1
 119 576 l 1
 119 569 l 1
 129 573 141 575 152 575 c 2
 349 575 l 2
 399 575 439 534 439 484 c 2
 439 437 l 2
 439 387 399 347 349 347 c 2
 152 347 l 2
 141 347 129 348 119 352 c 1
 119 0 l 1
 61 0 l 1xbc
182 410 m 2
 318 410 l 2
 353 410 381 425 381 460 c 0
 381 495 353 511 318 511 c 2
 182 511 l 2
 147 511 120 495 120 460 c 0
 120 425 147 410 182 410 c 2
EndSplineSet
Validated: 1
EndChar

StartChar: R
Encoding: 82 82 43
Width: 500
VWidth: 0
Flags: W
HStem: 1 21G<61 119 348.422 440> 1 21G<61 119 348.422 440> 347 63<128.05 176 244 371.591> 511 64<128.8 371.591>
VStem: 61 58<0 352 419.705 500.865 569 576> 381 58<420.992 500.041>
DStem2: 244 347 176 347 0.492886 -0.870094<0 357.734>
LayerCount: 2
Fore
SplineSet
61 576 m 1xbc
 119 576 l 1
 119 569 l 1
 129 573 141 575 152 575 c 2
 349 575 l 2
 399 575 439 534 439 484 c 2
 439 437 l 2
 439 387 399 347 349 347 c 2
 244 347 l 1
 440 1 l 1
 359 1 l 1
 176 347 l 1
 152 347 l 2
 141 347 129 348 119 352 c 1
 119 0 l 1
 61 0 l 1
 61 576 l 1xbc
182 511 m 2
 147 511 120 495 120 460 c 0
 120 425 147 410 182 410 c 2
 318 410 l 2
 353 410 381 425 381 460 c 0
 381 495 353 511 318 511 c 2
 182 511 l 2
EndSplineSet
Validated: 1
EndChar

StartChar: S
Encoding: 83 83 44
Width: 500
VWidth: 0
Flags: W
HStem: 1 63<136.959 366.041> 347 63<130.278 366.041> 513 63<132.475 366.041>
VStem: 61 60<80.4613 125 419.734 501.425> 381 60<78.4871 332.513 452 498.799>
LayerCount: 2
Fore
SplineSet
381 129 m 2
 381 282 l 2
 381 319 354 347 320 347 c 2
 153 347 l 2
 103 347 61 388 61 438 c 2
 61 486 l 2
 61 536 103 576 153 576 c 2
 350 576 l 2
 400 576 441 535 441 485 c 2
 441 452 l 1
 382 452 l 1
 381 486 354 513 320 513 c 2
 183 513 l 2
 149 513 121 493 121 461 c 0
 122 427 145 410 183 410 c 2
 350 410 l 2
 400 410 441 369 441 319 c 2
 441 92 l 2
 441 42 400 1 350 1 c 2
 153 1 l 2
 103 1 62 42 62 92 c 2
 62 125 l 1
 121 125 l 1
 122 91 149 64 183 64 c 2
 320 64 l 2
 354 64 381 92 381 129 c 2
EndSplineSet
Validated: 1
EndChar

StartChar: T
Encoding: 84 84 45
Width: 500
VWidth: 0
Flags: W
HStem: 0 21G<222 280> 0 21G<222 280> 515 58<61 222 280 439>
VStem: 222 58<0 515>
LayerCount: 2
Fore
SplineSet
61 573 m 1xb0
 439 573 l 1
 439 515 l 1
 280 515 l 1
 280 0 l 1
 222 0 l 1
 222 515 l 1
 61 515 l 1
 61 573 l 1xb0
EndSplineSet
Validated: 1
EndChar

StartChar: U
Encoding: 85 85 46
Width: 500
VWidth: 0
Flags: W
HStem: 1 63<135.959 365.008> 553 20G<61 119.045 381 439>
VStem: 61 59<80.4613 573> 381 58<80.4613 573>
LayerCount: 2
Fore
SplineSet
61 573 m 1
 119 573 l 1
 120 125 l 2
 121 91 148 64 182 64 c 2
 318 64 l 2
 352 64 380 91 381 125 c 2
 381 573 l 1
 439 573 l 1
 439 92 l 2
 439 42 399 1 349 1 c 2
 152 1 l 2
 102 1 61 42 61 92 c 2
 61 573 l 1
EndSplineSet
Validated: 1
EndChar

StartChar: V
Encoding: 86 86 47
Width: 500
VWidth: 0
Flags: W
HStem: 1 64<203.625 297.054> 556 20G<61 123.341 377.623 440>
VStem: 61 59<517 576> 381 59<517 576>
DStem2: 120 576 61 576 0.172428 -0.985022<0 521.231> 304 120 355 78 0.16825 0.985744<-57.577 462.455>
LayerCount: 2
Fore
SplineSet
381 576 m 1
 440 576 l 1
 355 78 l 6
 351 52 333 1 314 1 c 6
 187 1 l 6
 171 1 154 50 148 79 c 6
 61 576 l 1
 120 576 l 1
 196 121 l 5
 200 100 204 70 221 65 c 5
 281 65 l 5
 297 73 301 101 304 120 c 6
 381 576 l 1
EndSplineSet
Validated: 1
EndChar

StartChar: W
Encoding: 87 87 48
Width: 500
VWidth: 0
Flags: W
HStem: 1 63<135.977 222 280 365.018> 388 20G<222 280> 554 20G<61 120 381 440>
VStem: 61 59<80.3188 574> 222 58<64 408> 381 59<79.6396 574>
LayerCount: 2
Fore
SplineSet
61 574 m 1
 120 574 l 1
 120 128 l 6
 120 95 145 64 186 64 c 6
 222 64 l 5
 222 179 222 293 222 408 c 1
 241 408 261 408 280 408 c 1
 280 293 280 179 280 64 c 5
 291 64 302 64 313 64 c 4
 352 64 381 89 381 125 c 4
 381 219 381 480 381 574 c 1
 440 574 l 1
 440 95 l 6
 440 48 405 1 356 1 c 6
 154 1 l 6
 105 1 62 39 61 87 c 5
 61 574 l 1
EndSplineSet
Validated: 1
EndChar

StartChar: X
Encoding: 88 88 49
Width: 500
VWidth: 0
Flags: W
HStem: 0 21G<62 145.502 355.406 438> 0 21G<62 145.502 355.406 438> 556 20G<61 144.498 356.412 440>
DStem2: 134 576 61 576 0.467958 -0.883751<0 249.592 369.782 617.607> 62 0 135 0 0.467958 0.883751<34.1609 281.518 401.708 651.768>
LayerCount: 2
Fore
SplineSet
61 576 m 1xa0
 134 576 l 1
 250 355 l 1
 367 576 l 1
 440 576 l 1
 287 287 l 1
 438 0 l 1
 366 0 l 1
 250 219 l 1
 135 0 l 1
 62 0 l 1
 214 287 l 1
 61 576 l 1xa0
EndSplineSet
Validated: 1
EndChar

StartChar: Y
Encoding: 89 89 50
Width: 500
VWidth: 0
Flags: W
HStem: 0 21G<220 278> 0 21G<220 278> 556 20G<61 144.407 355.412 439>
VStem: 220 58<0 287>
DStem2: 134 576 61 576 0.482035 -0.876152<0 249.064> 249 355 278 287 0.486669 0.873586<0 250.003>
LayerCount: 2
Fore
SplineSet
61 576 m 1xb0
 134 576 l 1
 249 355 l 1
 366 576 l 1
 439 576 l 1
 278 287 l 1
 278 0 l 1
 220 0 l 1
 220 287 l 1
 61 576 l 1xb0
EndSplineSet
Validated: 1
EndChar

StartChar: Z
Encoding: 90 90 51
Width: 500
VWidth: 0
Flags: W
HStem: 1 58<143 359.553> 517 59<138.873 354>
VStem: 62 59<452 498> 380 59<79.6396 125>
DStem2: 61 61 143 59 0.541127 0.840941<42.6905 542.019>
LayerCount: 2
Fore
SplineSet
132 576 m 2
 439 576 l 5
 439 519 l 1
 143 59 l 1
 308 59 l 2
 345 59 380 89 380 125 c 1
 400 125 419 125 439 125 c 1
 439 115 439 105 439 95 c 0
 439 48 400 1 353 1 c 2
 61 1 l 1
 61 61 l 1
 354 517 l 1
 190 517 l 2
 155 517 121 488 121 452 c 1
 101 452 82 452 62 452 c 1
 62 461 62 469 62 478 c 0
 62 521 88 576 132 576 c 2
EndSplineSet
Validated: 1
EndChar

StartChar: zero
Encoding: 48 48 53
Width: 500
VWidth: 0
Flags: W
HStem: 1 63<135.959 365.008> 256 64<219.411 280.589> 513 63<135.506 365.008>
VStem: 61 59<78.3196 498.544> 218 64<257.411 318.589> 381 58<80.4613 496.539>
LayerCount: 2
Fore
SplineSet
149 576 m 0
 150 576 151 576 152 576 c 2
 349 576 l 2
 399 576 439 535 439 485 c 2
 439 92 l 6
 439 42 399 1 349 1 c 6
 152 1 l 6
 102 1 61 42 61 92 c 6
 61 485 l 2
 61 534 100 575 149 576 c 0
182 513 m 2
 147 513 120 485 120 450 c 2
 120 127 l 6
 120 92 147 64 182 64 c 6
 318 64 l 6
 353 64 381 92 381 127 c 6
 381 450 l 2
 381 485 353 513 318 513 c 2
 182 513 l 2
250 320 m 0
 268 320 282 306 282 288 c 0
 282 270 268 256 250 256 c 0
 232 256 218 270 218 288 c 0
 218 306 232 320 250 320 c 0
EndSplineSet
Validated: 1
EndChar

StartChar: one
Encoding: 49 49 54
Width: 500
VWidth: 0
Flags: W
HStem: 0 63<59 222 284 440> 324 87<61 148> 556 20G<222 284>
VStem: 222 62<63 488 575 576>
DStem2: 61 411 61 324 0.70055 0.713603<0 167.736>
LayerCount: 2
Fore
SplineSet
222 576 m 1
 223 576 l 1
 284 576 l 1
 284 63 l 1
 440 63 l 1
 440 0 l 1
 59 0 l 1
 59 63 l 1
 222 63 l 1
 222 488 l 1
 61 324 l 1
 61 411 l 1
 222 575 l 1
 222 576 l 1
EndSplineSet
Validated: 1
EndChar

StartChar: two
Encoding: 50 50 55
Width: 500
VWidth: 0
Flags: W
HStem: 0 63<186 440> 513 63<134.992 358.25>
VStem: 61 58<451 497.521> 373 66<422 499.774>
DStem2: 60 0 186 63 0.595728 0.803186<125.662 525.407>
LayerCount: 2
Fore
SplineSet
151 576 m 2
 349 576 l 2
 399 576 439 536 439 486 c 2
 439 410 l 1
 186 63 l 1
 440 63 l 1
 440 0 l 1
 60 0 l 1
 373 422 l 1
 373 451 l 2
 373 486 349 513 314 513 c 2
 182 513 l 2
 147 513 119 486 119 451 c 1
 61 451 l 1
 61 486 l 2
 61 536 101 576 151 576 c 2
EndSplineSet
Validated: 1
EndChar

StartChar: three
Encoding: 51 51 56
Width: 500
VWidth: 0
Flags: W
HStem: 1 63<61 366.81> 344 66<61 367.087> 513 63<61 372.786>
VStem: 381 59<78.3196 330.087 421.918 501.352>
LayerCount: 2
Fore
SplineSet
346 576 m 2
 396 576 440 533 440 483 c 2
 440 432 l 2
 440 410 431 391 417 376 c 1
 431 360 440 339 440 317 c 2
 440 92 l 2
 440 42 399 1 349 1 c 2
 61 1 l 1
 61 64 l 5
 319 64 l 2
 356 64 381 92 381 127 c 2
 381 282 l 2
 381 317 354 344 319 344 c 2
 61 344 l 1
 61 410 l 1
 317 410 l 2
 350 410 379 430 379 451 c 2
 379 474 l 2
 379 496 350 513 322 513 c 2
 61 513 l 1
 61 576 l 1
 346 576 l 2
EndSplineSet
Validated: 1
EndChar

StartChar: four
Encoding: 52 52 57
Width: 500
VWidth: 0
Flags: W
HStem: 0 21G<381 440> 0 21G<381 440> 191 59<124 381> 556 20G<359.951 440>
VStem: 381 59<0 191 250 495>
DStem2: 60 271 124 250 0.724943 0.688809<31.9314 387>
LayerCount: 2
Fore
SplineSet
381 576 m 1xb8
 440 576 l 1
 440 0 l 1
 381 0 l 1
 381 191 l 1
 60 191 l 1
 60 271 l 1
 381 576 l 1xb8
381 495 m 1
 124 250 l 1
 381 250 l 1
 381 495 l 1
EndSplineSet
Validated: 1
EndChar

StartChar: five
Encoding: 53 53 58
Width: 500
VWidth: 0
Flags: W
HStem: 1 63<61 366.041> 344 63<120 366.041> 517 59<120 441>
VStem: 61 59<407 517> 382 59<80.4613 328.521>
LayerCount: 2
Fore
SplineSet
61 576 m 1
 441 576 l 1
 441 517 l 1
 120 517 l 1
 120 407 l 1
 350 407 l 2
 400 407 441 367 441 317 c 2
 441 92 l 2
 441 42 400 1 350 1 c 2
 61 1 l 1
 61 64 l 1
 319 64 l 2
 354 64 382 92 382 127 c 2
 382 282 l 2
 382 317 354 344 319 344 c 2
 61 344 l 1
 61 576 l 1
EndSplineSet
Validated: 1
EndChar

StartChar: six
Encoding: 54 54 59
Width: 500
VWidth: 0
Flags: W
HStem: 1 63<135.959 365.008> 344 63<134.453 365.008> 513 63<135.959 365.008>
VStem: 61 59<78.3196 329.271 402 497.365> 381 58<80.4613 328.521 449 497.277>
LayerCount: 2
Fore
SplineSet
152 576 m 2
 349 576 l 2
 399 576 439 536 439 486 c 2
 439 449 l 1
 381 449 l 1
 381 484 353 513 318 513 c 2
 182 513 l 2
 149 513 122 486 120 453 c 1
 120 402 l 1
 130 406 141 407 152 407 c 2
 349 407 l 2
 399 407 439 367 439 317 c 2
 439 92 l 2
 439 42 399 1 349 1 c 2
 152 1 l 2
 102 1 61 42 61 92 c 2
 61 486 l 2
 61 536 102 576 152 576 c 2
182 344 m 2
 149 344 122 319 120 286 c 1
 120 285 l 1
 120 284 120 283 120 282 c 2
 120 127 l 2
 120 92 147 64 182 64 c 2
 318 64 l 2
 353 64 381 92 381 127 c 2
 381 282 l 2
 381 317 353 344 318 344 c 2
 182 344 l 2
EndSplineSet
Validated: 1
EndChar

StartChar: seven
Encoding: 55 55 60
Width: 500
VWidth: 0
Flags: W
HStem: 1 21G<186 273.537> 1 21G<186 273.537> 514 63<133.913 355.969>
VStem: 61 59<452 498.521> 372 68<423 498.521>
DStem2: 186 1 265 1 0.397851 0.91745<31.4303 477.209>
LayerCount: 2
Fore
SplineSet
152 577 m 2xb8
 349 577 l 2
 399 577 440 537 440 487 c 2
 440 411 l 1
 265 1 l 1
 186 1 l 1
 369 423 l 1
 372 452 l 1
 372 489 338 514 314 514 c 1
 182 514 l 2
 147 514 120 487 120 452 c 1
 61 452 l 1
 61 487 l 2
 61 537 102 577 152 577 c 2xb8
EndSplineSet
Validated: 1
EndChar

StartChar: eight
Encoding: 56 56 61
Width: 500
VWidth: 0
Flags: W
HStem: 1 63<135.959 365.008> 344 66<133.915 366.085> 513 63<131.529 369.417>
VStem: 61 59<78.3196 329.707 421.196 501.041> 381 58<80.4613 329.137 421.556 500.991>
LayerCount: 2
Fore
SplineSet
152 576 m 2
 349 576 l 2
 399 576 439 535 439 485 c 2
 439 437 l 2
 439 414 431 393 417 377 c 1
 431 361 439 340 439 317 c 2
 439 92 l 6
 439 42 399 1 349 1 c 6
 152 1 l 6
 102 1 61 42 61 92 c 6
 61 317 l 2
 61 340 70 361 84 377 c 1
 70 393 61 414 61 437 c 2
 61 485 l 2
 61 535 102 576 152 576 c 2
182 513 m 2
 148 513 121 494 121 461 c 0
 121 428 148 410 182 410 c 2
 318 410 l 2
 352 410 379 428 379 461 c 0
 379 494 352 513 318 513 c 2
 182 513 l 2
182 344 m 2
 147 344 120 317 120 282 c 2
 120 127 l 6
 120 92 147 64 182 64 c 6
 318 64 l 6
 353 64 381 92 381 127 c 6
 381 282 l 2
 381 317 353 344 318 344 c 2
 182 344 l 2
EndSplineSet
Validated: 1
EndChar

StartChar: nine
Encoding: 57 57 62
Width: 500
VWidth: 0
Flags: W
HStem: 1 63<133.913 365.008> 347 63<129.344 371.25> 513 63<131.529 369.417>
VStem: 61 59<78.2012 126 420.992 501.041> 381 58<80.4613 352 420.471 501.041>
LayerCount: 2
Fore
SplineSet
152 576 m 2
 349 576 l 2
 399 576 439 535 439 485 c 2
 439 92 l 2
 439 42 399 1 349 1 c 2
 152 1 l 2
 102 1 61 42 61 92 c 2
 61 126 l 1
 120 126 l 1
 120 91 147 64 182 64 c 2
 318 64 l 2
 352 64 379 90 381 123 c 1
 381 352 l 1
 371 347 360 347 349 347 c 2
 152 347 l 2
 102 347 61 387 61 437 c 2
 61 485 l 2
 61 535 102 576 152 576 c 2
182 513 m 2
 148 513 121 495 120 462 c 1
 120 427 147 410 182 410 c 2
 318 410 l 2
 352 410 380 427 381 461 c 1
 381 495 352 513 318 513 c 2
 182 513 l 2
EndSplineSet
Validated: 1
EndChar

StartChar: period
Encoding: 46 46 63
Width: 500
VWidth: 0
Flags: W
HStem: 0 64<219.411 280.589>
VStem: 218 64<1.41064 62.5894>
LayerCount: 2
Fore
SplineSet
282 32 m 4
 282 14 268 0 250 0 c 4
 232 0 218 14 218 32 c 4
 218 50 232 64 250 64 c 4
 268 64 282 50 282 32 c 4
EndSplineSet
Validated: 1
EndChar

StartChar: question
Encoding: 63 63 64
Width: 500
VWidth: 0
Flags: W
HStem: 0 64<221.411 282.589> 348 63<284.498 376.642> 513 63<133.913 369.471>
VStem: 61 59<451 498.799> 220 64<1.41064 62.5894 191 344.821> 381 59<414.179 501.041>
LayerCount: 2
Fore
SplineSet
152 576 m 2
 349 576 l 2
 399 576 440 535 440 485 c 2
 440 439 l 2
 440 389 411 348 361 348 c 2
 319 348 l 2
 284 348 278 320 278 285 c 2
 278 191 l 1
 219 191 l 1
 219 320 l 2
 219 370 248 411 298 411 c 2
 341 411 l 2
 375 411 381 428 381 461 c 0
 380 495 353 513 319 513 c 2
 182 513 l 2
 147 513 120 486 120 451 c 1
 61 451 l 1
 61 485 l 2
 61 535 102 576 152 576 c 2
252 64 m 0
 270 64 284 50 284 32 c 0
 284 14 270 0 252 0 c 0
 234 0 220 14 220 32 c 0
 220 50 234 64 252 64 c 0
EndSplineSet
Validated: 1
EndChar

StartChar: parenleft
Encoding: 40 40 65
Width: 500
VWidth: 0
Flags: W
HStem: 0 59<330.575 383> 517 59<325.308 383>
VStem: 219 63<113.439 470.109>
LayerCount: 2
Fore
SplineSet
219 412 m 6
 219 489 298 576 357 576 c 6
 383 576 l 5
 383 517 l 5
 328 517 282 465 282 393 c 6
 282 183 l 6
 282 123 330 59 383 59 c 5
 383 0 l 5
 357 0 l 6
 296 0 219 80 219 163 c 6
 219 412 l 6
EndSplineSet
Validated: 1
EndChar

StartChar: parenright
Encoding: 41 41 66
Width: 500
VWidth: 0
Flags: W
HStem: 0 59<117 169.425> 517 59<117 174.692>
VStem: 218 63<113.439 470.109>
LayerCount: 2
Fore
SplineSet
281 412 m 2
 281 163 l 2
 281 80 204 0 143 0 c 2
 117 0 l 1
 117 59 l 1
 170 59 218 123 218 183 c 2
 218 393 l 2
 218 465 172 517 117 517 c 1
 117 576 l 1
 143 576 l 2
 202 576 281 489 281 412 c 2
EndSplineSet
Validated: 1
EndChar

StartChar: bracketleft
Encoding: 91 91 67
Width: 500
VWidth: 0
Flags: W
HStem: 0 59<277 382> 517 59<277 382>
VStem: 219 163<0 59 517 576> 219 58<59 517>
LayerCount: 2
Fore
SplineSet
219 576 m 1xe0
 382 576 l 1
 382 517 l 1xe0
 277 517 l 1
 277 59 l 1xd0
 382 59 l 1
 382 0 l 1
 219 0 l 1
 219 576 l 1xe0
EndSplineSet
Validated: 1
EndChar

StartChar: backslash
Encoding: 92 92 68
Width: 500
VWidth: 0
Flags: W
HStem: 0 21G<360.236 440> 0 21G<360.236 440> 556 20G<61 139.799>
DStem2: 129 576 61 576 0.475102 -0.879931<0 621.815>
LayerCount: 2
Fore
SplineSet
129 576 m 1xa0
 440 0 l 1
 371 0 l 1
 61 576 l 1
 129 576 l 1xa0
EndSplineSet
Validated: 1
EndChar

StartChar: bracketright
Encoding: 93 93 69
Width: 500
VWidth: 0
Flags: W
HStem: 0 59<117 222> 517 59<117 222>
VStem: 117 164<0 59 517 576> 222 59<59 517>
LayerCount: 2
Fore
SplineSet
281 576 m 1xe0
 281 0 l 1
 117 0 l 1
 117 59 l 1xe0
 222 59 l 1
 222 517 l 1xd0
 117 517 l 1
 117 576 l 1
 281 576 l 1xe0
EndSplineSet
Validated: 1
EndChar

StartChar: braceleft
Encoding: 123 123 70
Width: 500
VWidth: 0
Flags: W
HStem: 0 59<335.201 383> 258 56<195 241.706> 517 59<335.201 383>
VStem: 258 63<72.9128 243.137 330.583 503.087>
LayerCount: 2
Fore
SplineSet
349 576 m 2
 383 576 l 1
 383 517 l 1
 348 517 321 490 321 455 c 2
 321 349 l 2
 321 325 312 304 297 288 c 1
 312 272 321 251 321 227 c 2
 321 121 l 2
 321 86 348 59 383 59 c 1
 383 0 l 1
 349 0 l 2
 299 0 258 41 258 91 c 2
 258 196 l 2
 258 231 230 258 195 258 c 1
 195 314 l 1
 230 314 258 345 258 380 c 2
 258 485 l 2
 258 535 299 576 349 576 c 2
EndSplineSet
Validated: 1
EndChar

StartChar: braceright
Encoding: 125 125 71
Width: 500
VWidth: 0
Flags: W
HStem: 0 59<118 164.521> 258 56<259.841 306> 517 59<118 164.521>
VStem: 180 63<72.9128 243.137 330.583 503.087>
LayerCount: 2
Fore
SplineSet
153 576 m 2
 203 576 243 535 243 485 c 2
 243 380 l 2
 243 345 271 314 306 314 c 1
 306 258 l 1
 271 258 244 231 244 196 c 2
 243 91 l 2
 243 41 203 0 153 0 c 2
 118 0 l 1
 118 59 l 1
 153 59 180 86 180 121 c 2
 181 227 l 2
 181 251 189 272 204 288 c 1
 189 304 180 325 180 349 c 2
 180 455 l 2
 180 490 153 517 118 517 c 1
 118 576 l 1
 153 576 l 2
EndSplineSet
Validated: 1
EndChar

StartChar: bar
Encoding: 124 124 72
Width: 500
VWidth: 0
Flags: W
HStem: 0 21G<221 280> 0 21G<221 280> 556 20G<221 280>
VStem: 221 59<0 576>
LayerCount: 2
Fore
SplineSet
221 576 m 1xb0
 280 576 l 1
 280 0 l 1
 221 0 l 1
 221 576 l 1xb0
EndSplineSet
Validated: 1
EndChar

StartChar: slash
Encoding: 47 47 73
Width: 500
VWidth: 0
Flags: W
HStem: 0 21G<61 139.799> 0 21G<61 139.799> 556 20G<360.236 440>
DStem2: 61 0 129 0 0.475102 0.879931<32.3069 654.122>
LayerCount: 2
Fore
SplineSet
371 576 m 1xa0
 440 576 l 1
 129 0 l 1
 61 0 l 1
 371 576 l 1xa0
EndSplineSet
Validated: 1
EndChar

StartChar: exclam
Encoding: 33 33 74
Width: 500
VWidth: 0
Flags: W
HStem: 0 64<219.411 280.589> 556 20G<220 282>
VStem: 218 64<1.41064 62.5894 191 576>
LayerCount: 2
Fore
SplineSet
220 576 m 1
 282 576 l 1
 282 191 l 1
 220 191 l 1
 220 576 l 1
250 64 m 0
 268 64 282 50 282 32 c 0
 282 14 268 0 250 0 c 0
 232 0 218 14 218 32 c 0
 218 50 232 64 250 64 c 0
EndSplineSet
Validated: 1
EndChar

StartChar: colon
Encoding: 58 58 75
Width: 500
VWidth: 0
Flags: W
HStem: 0 64<219.411 280.589> 191 64<220.411 281.589>
VStem: 218 64<1.41064 62.5894 192.905 253.095>
LayerCount: 2
Fore
SplineSet
251 255 m 0
 269 255 283 241 283 223 c 0
 283 205 269 191 251 191 c 0
 233 191 219 205 219 223 c 0
 219 241 233 255 251 255 c 0
250 64 m 0
 268 64 282 50 282 32 c 0
 282 14 268 0 250 0 c 0
 232 0 218 14 218 32 c 0
 218 50 232 64 250 64 c 0
EndSplineSet
Validated: 1
EndChar

StartChar: comma
Encoding: 44 44 76
Width: 500
VWidth: 0
Flags: W
HStem: -100 164
VStem: 152 130
DStem2: 152 -100 216 -100 0.37334 0.927694<23.8938 176.782>
LayerCount: 2
Fore
SplineSet
218 64 m 1
 282 64 l 1
 216 -100 l 1
 152 -100 l 1
 218 64 l 1
EndSplineSet
Validated: 1
EndChar

StartChar: semicolon
Encoding: 59 59 77
Width: 500
VWidth: 0
Flags: W
HStem: 191 64<218.411 279.589>
VStem: 217 64<192.411 253.589>
DStem2: 152 -100 216 -100 0.37334 0.927694<23.8938 176.782>
LayerCount: 2
Fore
SplineSet
249 255 m 0
 267 255 281 241 281 223 c 0
 281 205 267 191 249 191 c 0
 231 191 217 205 217 223 c 0
 217 241 231 255 249 255 c 0
218 64 m 1
 282 64 l 1
 216 -100 l 1
 152 -100 l 1
 218 64 l 1
EndSplineSet
Validated: 1
EndChar

StartChar: equal
Encoding: 61 61 78
Width: 500
VWidth: 0
Flags: W
HStem: 178 63<60 440> 333 63<60 440>
LayerCount: 2
Fore
SplineSet
60 396 m 5
 440 396 l 5
 440 333 l 5
 60 333 l 5
 60 396 l 5
60 241 m 5
 440 241 l 5
 440 178 l 5
 60 178 l 5
 60 241 l 5
EndSplineSet
Validated: 1
EndChar

StartChar: plus
Encoding: 43 43 79
Width: 500
VWidth: 0
Flags: W
HStem: 255 63<62 219 282 439>
VStem: 219 63<98 255 318 475>
LayerCount: 2
Fore
SplineSet
439 318 m 5
 439 255 l 1
 282 255 l 1
 282 98 l 1
 219 98 l 1
 219 255 l 1
 62 255 l 1
 62 318 l 1
 219 318 l 1
 219 475 l 1
 282 475 l 1
 282 318 l 1
 439 318 l 5
EndSplineSet
Validated: 1
EndChar

StartChar: hyphen
Encoding: 45 45 80
Width: 500
VWidth: 0
Flags: W
HStem: 255 63<61 439>
LayerCount: 2
Fore
SplineSet
61 318 m 1
 439 318 l 5
 439 255 l 1
 61 255 l 1
 61 318 l 1
EndSplineSet
Validated: 1
EndChar

StartChar: quotedbl
Encoding: 34 34 81
Width: 500
VWidth: 0
Flags: W
HStem: 411 165<156 218 281 344>
VStem: 156 62<411 576> 281 63<411 576>
LayerCount: 2
Fore
SplineSet
281 576 m 1
 344 576 l 1
 344 411 l 1
 281 411 l 1
 281 576 l 1
156 576 m 1
 218 576 l 1
 218 411 l 1
 156 411 l 1
 156 576 l 1
EndSplineSet
Validated: 1
EndChar

StartChar: numbersign
Encoding: 35 35 82
Width: 500
VWidth: 0
Flags: W
HStem: 0 21G<156 219 282 344> 0 21G<156 219 282 344> 111 63<61 156 219 282 344 439> 237 63<61 156 219 282 344 439> 391 20G<156 219 282 344>
VStem: 156 63<0 111 174 237 300 411> 282 62<0 111 174 237 300 411>
LayerCount: 2
Fore
SplineSet
156 411 m 1xbe
 219 411 l 1
 219 300 l 1
 282 300 l 1
 282 411 l 1
 344 411 l 1
 344 300 l 1
 439 300 l 1
 439 237 l 1
 344 237 l 1
 344 174 l 1
 439 174 l 1
 439 111 l 1
 344 111 l 1
 344 0 l 1
 282 0 l 1
 282 111 l 1
 219 111 l 1
 219 0 l 1
 156 0 l 1
 156 111 l 1
 61 111 l 1
 61 174 l 1
 156 174 l 1
 156 237 l 1
 61 237 l 1
 61 300 l 1
 156 300 l 1
 156 411 l 1xbe
219 237 m 1
 219 174 l 1
 282 174 l 1
 282 237 l 1
 219 237 l 1
EndSplineSet
Validated: 1
EndChar

StartChar: dollar
Encoding: 36 36 83
Width: 500
VWidth: 0
Flags: W
HStem: 0 21G<218 281> 0 21G<218 281> 84 63<134.992 218 281 364.8> 276 63<124.943 218 281 364.8> 428 63<126.179 218 281 365.008> 556 20G<218 281>
VStem: 60 60<161.77 208 345.278 420.18> 218 63<0 84 147 276 339 428 491 576> 380 59<163.461 260.521 367 412.521>
LayerCount: 2
Fore
SplineSet
218 576 m 1xbf80
 281 576 l 1
 281 491 l 1
 349 491 l 2
 399 491 439 451 439 401 c 2
 439 367 l 1
 381 367 l 1
 380 401 352 428 318 428 c 2
 281 428 l 1
 281 339 l 1
 349 339 l 2
 399 339 439 299 439 249 c 2
 439 175 l 2
 439 125 399 84 349 84 c 2
 281 84 l 1
 281 0 l 1
 218 0 l 1
 218 84 l 1
 151 84 l 2
 101 84 61 125 61 175 c 2
 61 208 l 1
 119 208 l 1
 120 174 148 147 182 147 c 2
 218 147 l 1
 218 276 l 1
 152 276 l 2
 102 276 60 318 60 368 c 2
 60 402 l 2
 60 452 101 491 151 491 c 2
 218 491 l 1
 218 576 l 1xbf80
182 428 m 2
 144 428 120 416 120 381 c 0
 121 347 144 339 182 339 c 2
 218 339 l 1
 218 428 l 1
 182 428 l 2
281 276 m 1
 281 147 l 1
 318 147 l 2
 352 147 380 175 380 212 c 0
 380 249 352 276 318 276 c 2
 281 276 l 1
EndSplineSet
Validated: 1
EndChar

StartChar: percent
Encoding: 37 37 84
Width: 500
VWidth: 0
Flags: W
HStem: 0 56<324.02 383.98> 120 56<324.317 383.371> 400 56<116.02 175.98> 520 56<116.02 175.98>
VStem: 60 54<457.497 518.503> 178 54<457.497 518.503> 268 54<57.4967 118.247> 386 54<57.4967 118.503>
DStem2: 60 0 129 0 0.475102 0.879931<32.782 654.597>
LayerCount: 2
Fore
SplineSet
146 576 m 0
 193 576 232 537 232 488 c 0
 232 439 193 400 146 400 c 0
 99 400 60 439 60 488 c 0
 60 537 99 576 146 576 c 0
371 576 m 1
 440 576 l 1
 129 0 l 1
 60 0 l 1
 371 576 l 1
146 520 m 0
 128 520 114 506 114 488 c 0
 114 470 128 456 146 456 c 0
 164 456 178 470 178 488 c 0
 178 506 164 520 146 520 c 0
351 176 m 0
 352 176 353 176 354 176 c 0
 401 176 440 137 440 88 c 0
 440 39 401 0 354 0 c 0
 307 0 268 39 268 88 c 0
 268 136 305 175 351 176 c 0
354 120 m 0
 336 120 322 106 322 88 c 0
 322 70 336 56 354 56 c 0
 372 56 386 70 386 88 c 0
 386 106 372 120 354 120 c 0
EndSplineSet
Validated: 1
EndChar

StartChar: ampersand
Encoding: 38 38 85
Width: 500
VWidth: 0
Flags: W
HStem: 0 63<133.992 314.481> 192 62<391 439> 525 51<144.451 240.602>
VStem: 60 57<79.4613 288.827> 85 50<442.426 515.84> 250 51<425.333 515.84> 333 106<192 254> 333 58<155 192>
DStem2: 139 442 91 415 0.560309 -0.828283<-29.2216 71.1837 124.437 346.417 471.503 494.972> 179 383 208 340 0.826064 0.563576<0 100.063>
LayerCount: 2
Fore
SplineSet
161 576 m 2xec
 224 576 l 2
 264 576 301 543 301 503 c 2
 301 458 l 2
 301 440 300 408 280 390 c 1
 208 340 l 1
 333 155 l 1xed
 333 192 l 1
 333 254 l 1
 439 254 l 1
 439 192 l 1xe6
 391 192 l 1
 391 91 l 2
 391 85 391 79 390 73 c 1
 438 0 l 1
 369 0 l 1
 357 19 l 1
 342 7 322 0 301 0 c 2
 150 0 l 2
 100 0 60 41 60 91 c 2
 60 242 l 2xf5
 60 295 84 316 133 352 c 1
 91 415 l 2
 87 422 85 434 85 447 c 2
 85 503 l 2
 85 543 121 576 161 576 c 2xec
185 525 m 2
 157 525 135 503 135 475 c 0
 135 466 135 451 139 442 c 1
 179 383 l 1
 240 425 l 2
 250 432 250 446 250 457 c 0
 250 463 251 481 249 488 c 0
 242 512 221 525 200 525 c 2
 185 525 l 2
163 308 m 1
 131 284 117 271 117 242 c 0xf4
 117 202 118 126 118 126 c 2
 118 91 145 63 180 63 c 2
 270 63 l 2
 288 63 304 70 315 82 c 1
 163 308 l 1
EndSplineSet
Validated: 1
EndChar

StartChar: quotesingle
Encoding: 39 39 86
Width: 500
VWidth: 0
Flags: W
HStem: 411 165<218 281>
VStem: 218 63<411 576>
LayerCount: 2
Fore
SplineSet
218 576 m 1
 281 576 l 1
 281 411 l 1
 218 411 l 1
 218 576 l 1
EndSplineSet
Validated: 1
EndChar

StartChar: asterisk
Encoding: 42 42 87
Width: 500
VWidth: 0
Flags: W
HStem: 224 125<187.5 312.5> 255 63<61 196 304 439>
DStem2: 183 465 129 434 0.498421 -0.866935<0 133.919 242.365 376.324> 129 139 183 107 0.498421 0.866935<0 133.959 242.405 376.324>
LayerCount: 2
Fore
SplineSet
183 465 m 1x40
 250 349 l 1x80
 317 465 l 1
 371 434 l 1
 304 318 l 1
 439 318 l 1
 439 255 l 1
 304 255 l 1x40
 371 139 l 1
 317 107 l 1
 250 224 l 1x80
 183 107 l 1
 129 139 l 1
 196 255 l 1
 61 255 l 1
 61 318 l 1
 196 318 l 1
 129 434 l 1
 183 465 l 1x40
EndSplineSet
Validated: 1
EndChar

StartChar: less
Encoding: 60 60 88
Width: 500
VWidth: 0
Flags: W
VStem: 351 89<84 173 403 492>
DStem2: 149 288 60 288 0.818835 -0.574029<0 282.507> 60 288 149 288 0.819759 0.572708<72.9586 355.382>
LayerCount: 2
Fore
SplineSet
60 288 m 1
 351 492 l 1
 441 492 l 1
 149 288 l 1
 440 84 l 1
 351 84 l 1
 60 288 l 1
EndSplineSet
Validated: 1
EndChar

StartChar: greater
Encoding: 62 62 89
Width: 500
VWidth: 0
Flags: W
VStem: 60 89<84 173 403 492>
DStem2: 148 492 59 492 0.819759 -0.572708<0 283.244> 60 84 149 84 0.818835 0.574029<72.8763 355.383>
LayerCount: 2
Fore
SplineSet
440 288 m 1
 149 84 l 1
 60 84 l 1
 351 288 l 1
 59 492 l 1
 148 492 l 1
 440 288 l 1
EndSplineSet
Validated: 1
EndChar

StartChar: at
Encoding: 64 64 90
Width: 500
VWidth: 0
Flags: W
HStem: 0 63<134.959 363.706> 191 45<205.007 290.993 343 380> 339 45<205.007 290.993> 513 63<134.959 364.041>
VStem: 60 59<77.3196 498.68> 154 51<236 339> 291 52<237.009 339> 380 59<79.4613 128 237 496.539>
LayerCount: 2
Fore
SplineSet
151 576 m 6
 348 576 l 6
 398 576 439 535 439 485 c 6
 439 191 l 5
 199 191 l 6
 174 191 154 210 154 234 c 6
 154 341 l 6
 154 365 174 384 199 384 c 6
 298 384 l 6
 323 384 343 365 343 341 c 6
 343 237 l 5
 380 237 l 5
 380 450 l 6
 380 485 352 513 317 513 c 6
 181 513 l 6
 146 513 119 485 119 450 c 6
 119 126 l 6
 119 91 146 63 181 63 c 6
 317 63 l 6
 352 63 380 93 380 128 c 5
 439 128 l 5
 439 91 l 6
 439 41 398 0 348 0 c 6
 151 0 l 6
 101 0 60 41 60 91 c 6
 60 485 l 6
 60 535 101 576 151 576 c 6
226 339 m 6
 215 339 205 329 205 316 c 6
 205 259 l 6
 205 246 215 236 226 236 c 6
 271 236 l 6
 282 236 291 246 291 259 c 6
 291 316 l 6
 291 329 282 339 271 339 c 6
 226 339 l 6
EndSplineSet
Validated: 1
EndChar

StartChar: asciicircum
Encoding: 94 94 91
Width: 500
VWidth: 0
Flags: W
HStem: 333 77<61 138 362 439> 499 77<211.5 288.5>
DStem2: 61 410 61 333 0.751344 0.659911<0 200.736> 250 576 250 499 0.751344 -0.659911<50.8131 251.549>
LayerCount: 2
Fore
SplineSet
61 410 m 1
 250 576 l 1
 439 410 l 1
 439 333 l 1
 250 499 l 1
 61 333 l 1
 61 410 l 1
EndSplineSet
Validated: 1
EndChar

StartChar: underscore
Encoding: 95 95 92
Width: 500
VWidth: 0
Flags: W
HStem: 0 63<61 439>
LayerCount: 2
Fore
SplineSet
61 63 m 1
 439 63 l 1
 439 0 l 1
 61 0 l 1
 61 63 l 1
EndSplineSet
Validated: 1
EndChar

StartChar: grave
Encoding: 96 96 93
Width: 500
VWidth: 0
Flags: W
HStem: 411 165
VStem: 92 63<513 576> 218 63<411 474>
DStem2: 155 576 92 576 0.606914 -0.794768<0 169.372>
LayerCount: 2
Fore
SplineSet
92 576 m 5
 155 576 l 5
 281 411 l 1
 218 411 l 1
 92 576 l 5
EndSplineSet
Validated: 1
EndChar

StartChar: odieresis
Encoding: 246 246 94
Width: 500
VWidth: 0
Flags: W
HStem: 0 63<135.959 365.008> 344 63<133.913 365.008> 512 64<144.411 205.589 295.905 356.095>
VStem: 61 59<77.3196 328.521> 143 64<513.411 574.589> 294 64<512.411 573.589> 381 58<79.4613 328.521>
LayerCount: 2
Fore
SplineSet
175 576 m 0
 193 576 207 562 207 544 c 0
 207 526 193 512 175 512 c 0
 157 512 143 526 143 544 c 0
 143 562 157 576 175 576 c 0
326 575 m 0
 344 575 358 561 358 543 c 0
 358 525 344 511 326 511 c 0
 308 511 294 525 294 543 c 0
 294 561 308 575 326 575 c 0
152 407 m 1
 349 407 l 2
 399 407 439 367 439 317 c 2
 439 91 l 2
 439 41 399 0 349 0 c 2
 152 0 l 2
 102 0 61 41 61 91 c 2
 61 317 l 2
 61 367 102 407 152 407 c 1
182 344 m 2
 147 344 120 317 120 282 c 2
 120 126 l 2
 120 91 147 63 182 63 c 2
 318 63 l 2
 353 63 381 91 381 126 c 2
 381 282 l 2
 381 317 353 344 318 344 c 2
 182 344 l 2
EndSplineSet
Validated: 1
EndChar

StartChar: adieresis
Encoding: 228 228 95
Width: 500
VWidth: 0
Flags: W
HStem: 0 64<134.959 364.879> 191 63<134.959 364.879> 345 65<59 352.657> 512 64<143.411 204.589 294.905 355.095>
VStem: 60 59<80.4439 175.521> 142 64<513.411 574.589> 293 64<512.411 573.589> 380 58<0 7 78.7704 176.23 249 318.622>
LayerCount: 2
Fore
SplineSet
174 576 m 0
 192 576 206 562 206 544 c 0
 206 526 192 512 174 512 c 0
 156 512 142 526 142 544 c 0
 142 562 156 576 174 576 c 0
325 575 m 0
 343 575 357 561 357 543 c 0
 357 525 343 511 325 511 c 0
 307 511 293 525 293 543 c 0
 293 561 307 575 325 575 c 0
59 410 m 1
 348 410 l 2
 398 410 438 368 438 318 c 2
 438 257 l 1
 440 0 l 1
 380 0 l 1
 380 7 l 1
 370 3 359 0 348 0 c 2
 151 0 l 2
 101 0 60 42 60 92 c 2
 60 125 l 1
 60 130 l 1
 60 164 l 2
 60 214 101 254 151 254 c 2
 348 254 l 2
 359 254 370 253 380 249 c 1
 380 257 l 2
 379 291 351 345 317 345 c 2
 59 345 l 1
 59 410 l 1
181 191 m 2
 147 191 120 164 119 130 c 2
 119 125 l 2
 120 91 147 64 181 64 c 2
 317 64 l 2
 351 64 379 91 380 125 c 2
 380 130 l 2
 379 164 351 191 317 191 c 2
 181 191 l 2
EndSplineSet
Validated: 1
EndChar

StartChar: udieresis
Encoding: 252 252 96
Width: 500
VWidth: 0
Flags: W
HStem: 0 63<134.959 365.349> 390 18G<60 119 380 439> 512 64<142.411 203.589 293.905 354.095>
VStem: 60 59<79.4613 408> 141 64<513.411 574.589> 292 64<512.411 573.589> 380 59<0 6 77.7704 410>
LayerCount: 2
Fore
SplineSet
173 576 m 0
 191 576 205 562 205 544 c 0
 205 526 191 512 173 512 c 0
 155 512 141 526 141 544 c 0
 141 562 155 576 173 576 c 0
324 575 m 0
 342 575 356 561 356 543 c 0
 356 525 342 511 324 511 c 0
 306 511 292 525 292 543 c 0
 292 561 306 575 324 575 c 0
380 410 m 1
 439 410 l 1
 439 0 l 1
 380 0 l 1
 380 6 l 1
 370 2 359 0 348 0 c 2
 151 0 l 2
 101 0 60 41 60 91 c 2
 60 408 l 1
 119 408 l 1
 119 123 l 2
 120 93 147 63 181 63 c 2
 318 63 l 2
 352 63 379 90 380 124 c 2
 380 410 l 1
EndSplineSet
Validated: 1
EndChar

StartChar: Udieresis
Encoding: 220 220 97
Width: 500
VWidth: 0
Flags: W
HStem: 0 63<134.959 364.041> 553 20G<60 119 380.955 439> 619 64<144.411 205.589 295.649 356.351>
VStem: 60 59<79.4613 573> 143 64<620.411 681.589> 294 64<619.411 681.497> 380 59<79.4613 573>
LayerCount: 2
Fore
SplineSet
175 683 m 0
 193 683 207 669 207 651 c 0
 207 633 193 619 175 619 c 0
 157 619 143 633 143 651 c 0
 143 669 157 683 175 683 c 0
326 683 m 0
 344 683 358 668 358 650 c 0
 358 632 344 618 326 618 c 0
 308 618 294 632 294 650 c 0
 294 668 308 683 326 683 c 0
60 573 m 1
 119 573 l 1
 119 124 l 2
 120 90 148 63 182 63 c 2
 318 63 l 2
 352 63 379 90 380 124 c 2
 381 573 l 1
 439 573 l 1
 439 91 l 2
 439 41 398 0 348 0 c 2
 151 0 l 2
 101 0 60 41 60 91 c 2
 60 573 l 1
EndSplineSet
Validated: 1
EndChar

StartChar: Adieresis
Encoding: 196 196 98
Width: 500
VWidth: 0
Flags: W
HStem: 0 21G<60 122.299 376.598 439> 0 21G<60 122.299 376.598 439> 194 59<161 337> 512 64<202.625 296.054> 619 64<142.411 203.589 294.649 355.351>
VStem: 60 59<0 59> 141 64<620.411 681.589> 293 64<619.411 681.497> 380 59<0 59>
DStem2: 60 0 119 0 0.170172 0.985414<10.0401 206.656 266.497 532.242> 354 500 337 253 0.167595 -0.985856<-23.7248 240.657 300.499 497.285>
LayerCount: 2
Fore
SplineSet
173 683 m 0x3f80
 191 683 205 669 205 651 c 0
 205 633 191 619 173 619 c 0
 155 619 141 633 141 651 c 0
 141 669 155 683 173 683 c 0x3f80
325 683 m 0
 343 683 357 668 357 650 c 0
 357 632 343 618 325 618 c 0
 307 618 293 632 293 650 c 0
 293 668 307 683 325 683 c 0
313 576 m 2
 332 576 350 526 354 500 c 2
 439 0 l 1
 380 0 l 1
 347 194 l 1
 151 194 l 1
 119 0 l 1
 60 0 l 1xbf80
 146 498 l 2
 152 527 170 576 186 576 c 2
 313 576 l 2
250 512 m 0
 240 512 230 512 220 512 c 1
 203 507 199 477 195 456 c 1
 161 253 l 1
 337 253 l 1
 303 458 l 2
 300 477 296 504 280 512 c 1
 270 512 260 512 250 512 c 0
EndSplineSet
Validated: 1
EndChar

StartChar: Odieresis
Encoding: 214 214 99
Width: 500
VWidth: 0
Flags: W
HStem: 0 63<134.959 364.041> 513 63<134.959 364.041> 619 64<144.411 205.589 295.649 356.351>
VStem: 60 59<77.3196 498.68> 143 64<620.411 681.589> 294 64<619.411 681.497> 380 59<77.3196 498.68>
LayerCount: 2
Fore
SplineSet
175 683 m 0
 193 683 207 669 207 651 c 0
 207 633 193 619 175 619 c 0
 157 619 143 633 143 651 c 0
 143 669 157 683 175 683 c 0
326 683 m 0
 344 683 358 668 358 650 c 0
 358 632 344 618 326 618 c 0
 308 618 294 632 294 650 c 0
 294 668 308 683 326 683 c 0
151 576 m 1
 348 576 l 2
 398 576 439 535 439 485 c 2
 439 91 l 2
 439 41 398 0 348 0 c 2
 151 0 l 2
 101 0 60 41 60 91 c 2
 60 485 l 2
 60 535 101 576 151 576 c 1
181 513 m 2
 146 513 119 485 119 450 c 2
 119 126 l 2
 119 91 146 63 181 63 c 2
 318 63 l 2
 353 63 380 91 380 126 c 2
 380 450 l 2
 380 485 353 513 318 513 c 2
 181 513 l 2
EndSplineSet
Validated: 1
EndChar

StartChar: asciitilde
Encoding: 126 126 100
Width: 500
VWidth: 0
Flags: W
HStem: 211 61<280.825 407.5> 255 63<60 123 376 439> 301 61<91.5002 218.057>
LayerCount: 2
Fore
SplineSet
60 318 m 1x40
 95 347 125 362 155 362 c 0x20
 185 362 214 347 250 318 c 1x40
 284 287 314 272 344 272 c 0x80
 374 272 404 287 439 318 c 1
 439 255 l 1x40
 404 225 374 211 344 211 c 0x80
 314 211 284 225 250 255 c 0x40
 214 285 185 301 155 301 c 0x20
 125 301 95 285 60 255 c 1
 60 318 l 1x40
EndSplineSet
Validated: 1
EndChar

StartChar: copyright
Encoding: 169 169 101
Width: 500
VWidth: 0
Flags: W
HStem: 0 63<135.959 365.008> 191 45<202.007 297.993> 340 45<202.007 297.993> 513 63<135.959 365.008>
VStem: 61 59<77.3196 498.68> 160 42<236.115 339.885> 298 42<236.115 259 317 339.885> 381 58<79.4613 496.539>
LayerCount: 2
Fore
SplineSet
152 576 m 0
 349 576 l 2
 399 576 439 535 439 485 c 2
 439 91 l 2
 439 41 399 0 349 0 c 2
 152 0 l 2
 102 0 61 41 61 91 c 2
 61 485 l 2
 61 535 102 576 152 576 c 0
182 513 m 2
 147 513 120 485 120 450 c 2
 120 126 l 2
 120 91 147 63 182 63 c 2
 318 63 l 2
 353 63 381 91 381 126 c 2
 381 450 l 2
 381 485 353 513 318 513 c 2
 182 513 l 2
203 385 m 1
 297 385 l 2
 321 385 340 366 340 342 c 2
 340 317 l 1
 298 317 l 1
 298 330 288 340 275 340 c 2
 225 340 l 2
 212 340 202 330 202 317 c 2
 202 259 l 2
 202 246 212 236 225 236 c 2
 275 236 l 2
 288 236 298 246 298 259 c 1
 340 259 l 1
 340 234 l 2
 340 210 321 191 297 191 c 2
 203 191 l 2
 179 191 160 210 160 234 c 2
 160 342 l 2
 160 366 179 385 203 385 c 1
EndSplineSet
Validated: 1
EndChar

StartChar: acute
Encoding: 180 180 102
Width: 500
VWidth: 0
Flags: W
HStem: 411 165
VStem: 218 63<411 474> 344 63<513 576>
DStem2: 218 411 281 411 0.606914 0.794768<38.2356 207.608>
LayerCount: 2
Fore
SplineSet
344 576 m 1
 407 576 l 1
 281 411 l 1
 218 411 l 1
 344 576 l 1
EndSplineSet
Validated: 1
EndChar

StartChar: degree
Encoding: 176 176 103
Width: 500
VWidth: 0
Flags: W
HStem: 400 56<220.02 279.98> 520 56<220.02 279.98>
VStem: 164 54<457.497 518.503> 282 54<457.497 518.503>
LayerCount: 2
Fore
SplineSet
250 576 m 0
 297 576 336 537 336 488 c 0
 336 439 297 400 250 400 c 0
 203 400 164 439 164 488 c 0
 164 537 203 576 250 576 c 0
250 520 m 0
 232 520 218 506 218 488 c 0
 218 470 232 456 250 456 c 0
 268 456 282 470 282 488 c 0
 282 506 268 520 250 520 c 0
EndSplineSet
Validated: 1
EndChar

StartChar: Igrave
Encoding: 204 204 104
Width: 500
VWidth: 0
Flags: W
HStem: 1 37<165.715 334.285> 122 44<239.106 262.149> 336 43<239.106 262.149> 417 84<124.283 174.624> 464 37<187.631 334.285>
VStem: 0 37<166.715 337.327> 120 45<237.851 264.138> 335 43<237.851 264.138> 463 37<166.715 335.285>
LayerCount: 2
Fore
SplineSet
146 501 m 0xf780
 157 501 167 497 175 490 c 1
 199 497 224 501 250 501 c 0xef80
 388 501 500 389 500 251 c 0
 500 113 388 1 250 1 c 0
 112 1 0 113 0 251 c 0
 0 335 41 409 104 454 c 1
 104 455 104 457 104 459 c 0
 104 482 123 501 146 501 c 0xf780
250 464 m 0
 229 464 208 461 188 455 c 1
 186 434 168 417 146 417 c 0xf780
 138 417 130 419 124 423 c 1
 71 384 37 322 37 251 c 0
 37 134 133 38 250 38 c 0
 367 38 463 134 463 251 c 0
 463 368 367 464 250 464 c 0
249 379 m 0
 320 379 378 322 378 251 c 0
 378 180 320 122 249 122 c 0
 178 122 120 180 120 251 c 0
 120 322 178 379 249 379 c 0
236 336 m 1
 236 265 l 1
 165 265 l 1
 165 237 l 1
 236 237 l 1
 236 166 l 1
 264 166 l 1
 264 237 l 1
 335 237 l 1
 335 265 l 1
 264 265 l 1
 264 336 l 1
 236 336 l 1
EndSplineSet
EndChar

StartChar: Iacute
Encoding: 205 205 105
Width: 500
VWidth: 0
Flags: W
HStem: 315 48<75 133 178 323 358.971 426> 470 37<143.641 174 209.375 291.625 327 356.438>
DStem2: 74 315 0 339 0.583813 -0.811888<0 214.245> 0 339 75 363 0.613042 0.790051<64.9393 200.357> 133 363 178 363 0.355632 0.934626<16.0035 114.586> 178 315 133 315 0.354654 -0.934997<0 170.137> 250 112 302 141 0.337722 0.941246<44.8577 215.727> 327 470 285 470 0.335267 -0.942123<0 99.4661> 302 141 250 5 0.583813 0.811888<0 214.245> 357 507 342 470 0.617069 -0.786909<19.8596 155.893>
LayerCount: 2
Fore
SplineSet
142 507 m 2
 214 507 285 507 357 507 c 1
 405 451 452 395 500 339 c 1
 417 228 333 116 250 5 c 1
 167 116 83 228 0 339 c 1
 47 395 95 451 142 507 c 2
174 470 m 1
 169 470 163 470 158 470 c 1
 130 434 103 399 75 363 c 1
 95 363 113 363 133 363 c 1
 146 399 161 434 174 470 c 1
285 470 m 1
 262 470 239 470 216 470 c 1
 203 434 191 399 178 363 c 1
 226 363 275 363 323 363 c 1
 310 399 298 434 285 470 c 1
342 470 m 1
 337 470 332 470 327 470 c 1
 340 434 354 399 367 363 c 1
 387 363 406 363 426 363 c 1
 398 399 370 434 342 470 c 1
133 315 m 1
 113 315 94 315 74 315 c 1
 116 257 157 199 199 141 c 1
 177 199 155 257 133 315 c 1
323 315 m 1
 275 315 226 315 178 315 c 1
 202 247 226 180 250 112 c 1
 274 180 299 247 323 315 c 1
427 315 m 1
 407 315 387 315 367 315 c 1
 345 257 324 199 302 141 c 1
 344 199 385 257 427 315 c 1
EndSplineSet
EndChar

StartChar: Icircumflex
Encoding: 206 206 106
Width: 500
VWidth: 0
Flags: W
HStem: 1 118<38 189 311 462> 151 118<175 326>
LayerCount: 2
Fore
SplineSet
175 269 m 1
 326 269 l 1
 364 151 l 1
 137 151 l 1
 175 269 l 1
38 119 m 1
 189 119 l 1
 226 1 l 1
 0 1 l 1
 38 119 l 1
311 119 m 1
 462 119 l 1
 500 1 l 1
 274 1 l 1
 311 119 l 1
EndSplineSet
EndChar

StartChar: Idieresis
Encoding: 207 207 107
Width: 500
VWidth: 0
Flags: W
HStem: 1 268<150.521 189.812>
LayerCount: 2
Fore
SplineSet
168 266 m 0
 171 268 174 269 178 269 c 0
 182 269 186 268 190 265 c 0
 207 254 231 218 252 167 c 0
 271 121 288 63 302 1 c 1
 88 1 l 1
 103 115 122 189 141 229 c 0
 151 250 160 262 168 266 c 0
324 253 m 0
 325 253 325 253 326 253 c 0
 438 253 441 84 500 1 c 1
 329 1 l 1
 314 67 295 129 275 180 c 0
 267 199 259 217 251 232 c 1
 271 238 287 242 311 250 c 0
 313 250 322 253 324 253 c 0
94 176 m 1
 82 132 72 74 62 1 c 1
 0 1 l 1
 28 99 56 148 94 176 c 1
EndSplineSet
EndChar

StartChar: Eth
Encoding: 208 208 108
Width: 500
VWidth: 0
Flags: W
HStem: 1 21G<0 59 97 156 190 249> 1 21G<0 59 97 156 190 249> 27 59<287 500> 122 58<287 500> 217 58<350 500> 311 59<435 500>
VStem: 0 59<1 301> 97 59<1 264> 146 83<389 472> 190 59<1 221> 280 83<389 472> 416 83<389 472>
DStem2: 0 326 59 301 0.70503 0.709177<23.8673 206.474> 97 289 156 264 0.705401 0.708809<23.8984 258.8> 190 245 249 221 0.705694 0.708517<24.6315 320.32>
LayerCount: 2
Fore
SplineSet
146 472 m 1xbeb0
 229 472 l 1
 59 301 l 1
 59 1 l 1
 0 1 l 1
 0 325 l 1
 0 326 l 1
 146 472 l 1xbeb0
280 472 m 1
 363 472 l 1
 156 264 l 1
 156 1 l 1
 97 1 l 1
 97 288 l 1
 97 289 l 1xbf30
 280 472 l 1
416 472 m 1
 499 472 l 1
 249 221 l 1
 249 1 l 1
 190 1 l 1
 190 245 l 1xbe70
 416 472 l 1
435 370 m 1
 500 370 l 1
 500 311 l 1
 379 311 l 1
 435 370 l 1
350 275 m 1
 500 275 l 1
 500 217 l 1
 287 217 l 1
 350 275 l 1
287 180 m 1
 500 180 l 1
 500 122 l 1
 287 122 l 1
 287 180 l 1
287 86 m 1
 500 86 l 1
 500 27 l 1
 287 27 l 1
 287 86 l 1
EndSplineSet
EndChar

StartChar: Ntilde
Encoding: 209 209 109
Width: 500
VWidth: 0
Flags: W
HStem: 1 20G<0 46.8182 55.4783 95> 1 20G<0 46.8182 55.4783 95>
VStem: 41 18<53 78> 112 25<104 147 170 210> 167 18<273 298> 191 18<55 81> 233 34<161 272> 237 25<304 366 389 431> 295 18<57 83> 317 18<274 300> 366 25<107 151 175 214> 445 18<59 86>
DStem2: 72 32 50 23 0.877096 -0.480315<0 25.937> 0 14 15 1 0.845748 0.533583<5.74963 47.0896 70.7089 131.864> 74 146 87 132 0.863014 0.505179<4.14668 33.2997> 154 75 125 63 0.889817 -0.456317<0 40.0646 64.4547 104.702> 133 170 137 148 0.894427 -0.447214<13.4164 40.2492> 150 17 163 3 0.859536 0.511075<4.01891 32.7553> 198 252 176 242 0.885832 -0.464007<0 25.9422> 199 364 213 351 0.853796 0.520607<5.18525 33.4855> 254 19 267 5 0.874893 0.484316<4.59319 47.4942 72.1006 111.689> 259 389 262 366 0.879707 -0.475517<13.576 42.0595> 262 304 267 273 0.869223 -0.49442<19.6731 61.7228 84.8011 125.399> 275 236 289 222 0.849285 0.527934<4.49892 33.6042> 327 36 304 28 0.877096 -0.480315<0 24.5796> 329 150 343 137 0.863014 0.505179<5.51487 32.4367> 388 175 391 152 0.884385 -0.466759<13.3886 40.7063> 404 22 417 8 0.859536 0.511075<4.01891 32.7553>
LayerCount: 2
Fore
SplineSet
255 436 m 1xbdf0
 259 437 l 1
 259 389 l 1
 296 369 l 1
 291 350 l 1
 262 366 l 1
 262 304 l 1xbdf0
 317 274 l 1
 316 300 l 1
 335 308 l 1
 335 261 l 1
 371 242 l 1
 368 222 l 1
 326 245 l 1
 289 222 l 1
 275 236 l 1
 304 253 l 1
 267 273 l 1
 267 161 l 1
 366 107 l 1
 366 151 l 1
 343 137 l 1
 329 150 l 1
 370 174 l 1
 369 214 l 1
 388 222 l 1
 388 175 l 1
 424 156 l 1
 421 136 l 1
 391 152 l 1
 391 89 l 1
 445 59 l 1
 444 86 l 1
 463 93 l 1
 463 46 l 1
 500 27 l 1
 496 8 l 1
 454 30 l 1
 417 8 l 1
 404 22 l 1
 432 39 l 1
 379 67 l 1
 327 36 l 1
 349 25 l 1
 346 5 l 1
 304 28 l 1
 267 5 l 1
 254 19 l 1
 295 43 l 1
 294 83 l 1
 313 91 l 1
 313 57 l 1
 349 78 l 1
 250 132 l 1
 154 75 l 1
 191 55 l 1
 190 81 l 1
 209 88 l 1
 209 41 l 1
 245 23 l 1
 242 3 l 1
 200 25 l 1
 163 3 l 1
 150 17 l 1
 178 34 l 1
 125 63 l 1
 72 32 l 1
 95 20 l 1
 92 0 l 1
 50 23 l 1
 15 1 l 1
 0 14 l 1
 41 38 l 1
 40 78 l 1
 59 86 l 1
 59 53 l 1
 112 84 l 1
 112 147 l 1
 87 132 l 1
 74 146 l 1
 115 170 l 1
 114 210 l 1
 133 217 l 1
 133 170 l 1
 169 152 l 1
 166 132 l 1
 137 148 l 1
 137 104 l 1
 233 161 l 1
 233 272 l 1xbef0
 198 252 l 1
 221 240 l 1
 218 220 l 1
 176 242 l 1
 140 221 l 1
 126 234 l 1
 167 258 l 1
 166 298 l 1
 185 305 l 1
 185 273 l 1
 237 304 l 1
 237 366 l 1
 213 351 l 1
 199 364 l 1
 240 389 l 1
 240 431 l 1
 255 436 l 1xbdf0
EndSplineSet
EndChar
